DBRep_DrawableShape

CASCADE Topology V1, (c) Matra-Datavision
Locations 8
1
              0               0              -1             104 
              0               1               0  -88.6832473685 
              1               0               0  -51.3605883505 
1
              1               0               0               0 
              0               1               0               0 
              0               0               1               0 
2  1 1 2 1 0
1
              1               0               0           51.25 
              0               1               0  -88.7676038879 
              0               0               1             -48 
1
              0               0               1             146 
              0               1               0               0 
             -1               0               0               0 
2  4 1 5 1 0
2  2 -1 1 -1 0
2  5 -1 4 -1 0
Curve2ds 24
1 0 -19 1 0 
2 -17.110588350500002 0.084356519399364061 -0.4794255386042035 0.87758256189037243 -0.87758256189037243 -0.4794255386042035 5
1 0 0 0 1 
1 3.1415926535897931 0 0 1 
1 0 -11 1 0 
2 -17.110588350500002 0.084356519399364061 -0.4794255386042035 0.87758256189037243 -0.87758256189037243 -0.4794255386042035 5
1 3.1415926535897931 0 0 1 
1 0 0 0 1 
1 0 -19 1 0 
2 -17.110588350500002 0.084356519399364061 0.4794255386042035 -0.87758256189037243 0.87758256189037243 0.4794255386042035 5
1 0 8 1 0 
2 -17 -6.2527760746888816e-013 -1 0 0 1 4.2999999999999972
1 -3.1415926535897931 8 1 0 
2 -17 -6.2527760746888816e-013 -1 0 0 1 4.2999999999999972
1 0 -11 1 0 
2 -17.110588350500002 0.084356519399364061 0.4794255386042035 -0.87758256189037243 0.87758256189037243 0.4794255386042035 5
7 0 0  1 2 2  1.464945735523556e-013 0  3.141592653589647 0 
 0 2 19.146063777199998 2
7 0 0  5 24 8  -21.300000000750003 0  -21.300000000750003 0.4063356268133731  -21.252003301999999 0.81267066213337102  -21.155986749089998 1.2115039216693759  -20.871606128140002 1.9788232085793709  -20.416274912159999 2.6587650172493795  -20.149264915170001 2.9702016929293791  -19.546826864479996 3.5240244349093786  -18.831934983069999 3.9222416938593767  -18.452441703250003 4.0780363785793696  -17.663959037235003 4.297002873199375  -16.846161420405998 4.326233855669372  -16.437343567409997 4.2922471214593685  -15.635597239139997 4.1283750320993704  -14.894098653269999 3.7822143254593783  -14.545540859859997 3.5658937088193738  -13.906218295869998 3.0550924814493783  -13.403504022349999 2.4093946074793706  -13.191586102350001 2.0581426551693767  -12.913903832140001 1.4432591458793809  -12.760637034150001 0.78898830400537179  -12.720211754350004 0.52736482841837073  -12.699999999249997 0.26368245535337564  -12.699999999249997 0 
 0 6 2.8795716272899998 3 5.7591432704200001 3 8.6387149334900002 3 11.5182865998 3 14.3978582447 3 17.277429901800001 3 19.146063777199998 6
1 -3.1415926535897931 0 1 0 
2 -17 -6.2527760746888816e-013 -1 0 0 1 4.2999999999999972
1 3.1415926535897931 0 0 1 
1 0 0 0 1 
1 1.1626525550786424e-028 0 0 1 
1 3.1415926535897931 0 0 1 
Curves 12
2 98 -88.683247368500005 -51.360588350500002 -1 0 0 0 0.87758256189037243 -0.4794255386042035 -0 -0.4794255386042035 -0.87758256189037243 5
1 -2.3971276930199998 4.3879128094500004 25 0 0 1 
2 90 -88.683247368500005 -51.360588350500002 -1 0 0 0 0.87758256189037243 -0.4794255386042035 -0 -0.4794255386042035 -0.87758256189037243 5
1 2.3971276930199998 -4.3879128094500004 25 0 0 1 
2 98 -88.683247368500005 -51.360588350500002 -1 0 0 0 -0.87758256189037243 0.4794255386042035 0 0.4794255386042035 0.87758256189037243 5
2 0 0 0 0 0 1 1 0 -0 -0 1 0 4.2999999999999998
2 0 0 0 0 0 1 1 0 -0 -0 1 0 4.2999999999999998
2 90 -88.683247368500005 -51.360588350500002 -1 0 0 0 -0.87758256189037243 0.4794255386042035 0 0.4794255386042035 0.87758256189037243 5
7 0 0  5 24 8  4.3000000007499999 6.2992666638499997e-013 -8  4.3000000007499999 0.40633562681399998 -8  4.2520033020000003 0.81267066213399997 -8  4.1559867490900002 1.2115039216700001 -8  3.8716061281399998 1.9788232085799999 -8  3.41627491216 2.6587650172499999 -8  3.1492649151699998 2.9702016929299999 -8  2.5468268644799998 3.5240244349099998 -8  1.83193498307 3.9222416938600002 -8  1.4524417032500001 4.0780363785800002 -8  0.66395903723500005 4.2970028732000003 -8  -0.15383857959399999 4.32623385567 -8  -0.56265643258999998 4.29224712146 -8  -1.36440276086 4.1283750321000001 -8  -2.1059013467300001 3.78221432546 -8  -2.45445914014 3.56589370882 -8  -3.09378170413 3.05509248145 -8  -3.5964959776500001 2.4093946074799999 -8  -3.8084138976499999 2.0581426551700002 -8  -4.0860961678600001 1.4432591458799999 -8  -4.2393629658499998 0.78898830400599995 -8  -4.2797882456499998 0.52736482841900001 -8  -4.3000000007499999 0.26368245535399998 -8  -4.3000000007499999 6.2959359947799996e-013 -8 
 0 6 2.8795716272899998 3 5.7591432704200001 3 8.6387149334900002 3 11.5182865998 3 14.3978582447 3 17.277429901800001 3 19.146063777199998 6
2 0 0 -8 0 0 1 1 0 -0 -0 1 0 4.2999999999999998
1 4.2999999999999998 -1.05319624727e-015 -8 0 0 1 
1 -4.2999999999999998 5.2659812363400004e-016 -8 0 0 1 
Polygon3D 0
PolygonOnTriangulations 28
19 1 3 4 5 6 7 8 9 10 11 12 13 14 15 16 17 18 19 2 
p 0.0415443622115596 1 0 0.174532925199433 0.349065850398866 0.523598775598299 0.698131700797732 0.872664625997165 1.0471975511966 1.22173047639603 1.39626340159546 1.5707963267949 1.74532925199433 1.91986217719376 2.0943951023932 2.26892802759263 2.44346095279206 2.61799387799149 2.79252680319093 2.96705972839036 3.14159265358979 
19 2 20 21 22 23 24 25 26 27 28 29 30 31 32 33 34 35 36 1 
p 0.0415443622115596 1 0 0.174532925199433 0.349065850398866 0.523598775598299 0.698131700797732 0.872664625997165 1.0471975511966 1.22173047639603 1.39626340159546 1.5707963267949 1.74532925199433 1.91986217719376 2.0943951023932 2.26892802759263 2.44346095279206 2.61799387799149 2.79252680319093 2.96705972839036 3.14159265358979 
2 1 20 
p 0.0415443622115596 1 -19 -11 
2 2 21 
p 0.0415443622115596 1 -19 -11 
19 20 22 23 24 25 26 27 28 29 30 31 32 33 34 35 36 37 38 21 
p 0.0415443622115596 1 0 0.174532925199433 0.349065850398866 0.523598775598299 0.698131700797732 0.872664625997165 1.0471975511966 1.22173047639603 1.39626340159546 1.5707963267949 1.74532925199433 1.91986217719376 2.0943951023932 2.26892802759263 2.44346095279206 2.61799387799149 2.79252680319093 2.96705972839036 3.14159265358979 
19 2 20 21 22 23 24 25 26 27 28 29 30 31 32 33 34 35 36 1 
p 0.0415443622115596 1 0 0.174532925199433 0.349065850398866 0.523598775598299 0.698131700797732 0.872664625997165 1.0471975511966 1.22173047639603 1.39626340159546 1.5707963267949 1.74532925199433 1.91986217719376 2.0943951023932 2.26892802759263 2.44346095279206 2.61799387799149 2.79252680319093 2.96705972839036 3.14159265358979 
2 2 21 
p 0.0415443622115596 1 -19 -11 
2 1 20 
p 0.0415443622115596 1 -19 -11 
19 1 3 4 5 6 7 8 9 10 11 12 13 14 15 16 17 18 19 2 
p 0.0415443622115596 1 0 0.174532925199433 0.349065850398866 0.523598775598299 0.698131700797732 0.872664625997165 1.0471975511966 1.22173047639603 1.39626340159546 1.5707963267949 1.74532925199433 1.91986217719376 2.0943951023932 2.26892802759263 2.44346095279206 2.61799387799149 2.79252680319093 2.96705972839036 3.14159265358979 
19 1 3 4 5 6 7 8 9 10 11 12 13 14 15 16 17 18 19 2 
p 0.0415443622115596 1 0 0.174532925199433 0.349065850398866 0.523598775598299 0.698131700797732 0.872664625997165 1.0471975511966 1.22173047639603 1.39626340159546 1.5707963267949 1.74532925199433 1.91986217719376 2.0943951023932 2.26892802759263 2.44346095279206 2.61799387799149 2.79252680319093 2.96705972839036 3.14159265358979 
19 43 45 46 47 48 49 50 51 52 53 54 55 56 57 58 59 60 61 44 
p 0.200000000800329 1 0 0.174532925199433 0.349065850398866 0.523598775598299 0.698131700797732 0.872664625997165 1.0471975511966 1.22173047639603 1.39626340159546 1.5707963267949 1.74532925199433 1.91986217719376 2.0943951023932 2.26892802759263 2.44346095279206 2.61799387799149 2.79252680319093 2.96705972839036 3.14159265358979 
19 1 3 4 5 6 7 8 9 10 11 12 13 14 15 16 17 18 19 2 
p 0.0415443622115596 1 0 0.174532925199433 0.349065850398866 0.523598775598299 0.698131700797732 0.872664625997165 1.0471975511966 1.22173047639603 1.39626340159546 1.5707963267949 1.74532925199433 1.91986217719376 2.0943951023932 2.26892802759263 2.44346095279206 2.61799387799149 2.79252680319093 2.96705972839036 3.14159265358979 
19 37 39 40 41 42 43 44 45 46 47 48 49 50 51 52 53 54 55 38 
p 0.0415443622115596 1 0 0.174532925199433 0.349065850398866 0.523598775598299 0.698131700797732 0.872664625997165 1.0471975511966 1.22173047639603 1.39626340159546 1.5707963267949 1.74532925199433 1.91986217719376 2.0943951023932 2.26892802759263 2.44346095279206 2.61799387799149 2.79252680319093 2.96705972839036 3.14159265358979 
19 44 62 63 64 65 66 67 68 69 70 71 72 73 74 75 76 77 78 43 
p 0.200000000800329 1 3.14159265358979 3.31612557878923 3.49065850398866 3.66519142918809 3.83972435438752 4.01425727958696 4.18879020478639 4.36332312998582 4.53785605518526 4.71238898038469 4.88692190558412 5.06145483078355 5.23598775598299 5.41052068118242 5.58505360638185 5.75958653158128 5.93411945678072 6.10865238198015 6.28318530717959 
19 3 4 5 6 7 8 9 10 11 12 13 14 15 16 17 18 19 20 2 
p 0.0415443622115596 1 3.14159265358979 3.31612557878923 3.49065850398866 3.66519142918809 3.83972435438752 4.01425727958696 4.18879020478639 4.36332312998582 4.53785605518526 4.71238898038469 4.88692190558412 5.06145483078355 5.23598775598299 5.41052068118242 5.58505360638185 5.75958653158128 5.93411945678072 6.10865238198015 6.28318530717959 
19 38 56 57 58 59 60 61 62 63 64 65 66 67 68 69 70 71 72 37 
p 0.0415443622115596 1 3.14159265358979 3.31612557878923 3.49065850398866 3.66519142918809 3.83972435438752 4.01425727958696 4.18879020478639 4.36332312998582 4.53785605518526 4.71238898038469 4.88692190558412 5.06145483078355 5.23598775598299 5.41052068118242 5.58505360638185 5.75958653158128 5.93411945678072 6.10865238198015 6.28318530717959 
19 20 22 23 24 25 26 27 28 29 30 31 32 33 34 35 36 37 38 21 
p 0.0415443622115596 1 0 0.174532925199433 0.349065850398866 0.523598775598299 0.698131700797732 0.872664625997165 1.0471975511966 1.22173047639603 1.39626340159546 1.5707963267949 1.74532925199433 1.91986217719376 2.0943951023932 2.26892802759263 2.44346095279206 2.61799387799149 2.79252680319093 2.96705972839036 3.14159265358979 
19 1 3 4 5 6 7 8 9 10 11 12 13 14 15 16 17 18 19 2 
p 0.0415443622115596 1 0 0.174532925199433 0.349065850398866 0.523598775598299 0.698131700797732 0.872664625997165 1.0471975511966 1.22173047639603 1.39626340159546 1.5707963267949 1.74532925199433 1.91986217719376 2.0943951023932 2.26892802759263 2.44346095279206 2.61799387799149 2.79252680319093 2.96705972839036 3.14159265358979 
23 43 45 46 47 48 49 50 51 52 53 54 55 56 57 58 59 60 61 62 63 64 65 44 
p 0.200000000800329 1 0 1.06465089094419 2.12930178188839 3.08915899098505 3.95453736965504 4.81991574832503 5.68529412699501 6.550672505665 7.41605088433498 8.28142926300497 9.14680764167495 10.0121860203449 10.8775643990149 11.7429427776849 12.6083211563549 13.4736995350249 14.3390779136949 15.2044562923649 16.0698346710348 16.9352130497048 17.8005914283748 18.4733276027874 19.1460637772 
22 20 22 23 24 25 26 27 28 29 30 31 32 33 34 35 36 37 38 39 40 41 21 
p 0.0415443622115596 1 0 0.970461401823351 1.9409228036467 2.90078001274337 3.850148900701 4.79951778865864 5.74888667661627 6.69825556457391 7.64762445253154 8.59699334048917 9.54636222844681 10.4957311164044 11.4451000043621 12.3944688923197 13.3438377802773 14.293206668235 15.2425755561926 16.1919444441502 17.1413133321079 18.0906822200655 18.6183729986328 19.1460637772 
22 37 39 40 41 42 43 44 45 46 47 48 49 50 51 52 53 54 55 56 57 58 38 
p 0.0415443622115596 1 0 0.970461401823351 1.9409228036467 2.90078001274337 3.850148900701 4.79951778865864 5.74888667661627 6.69825556457391 7.64762445253154 8.59699334048917 9.54636222844681 10.4957311164044 11.4451000043621 12.3944688923197 13.3438377802773 14.293206668235 15.2425755561926 16.1919444441502 17.1413133321079 18.0906822200655 18.6183729986328 19.1460637772 
19 44 66 67 68 69 70 71 72 73 74 75 76 77 78 79 80 81 82 43 
p 0.200000000800329 1 3.14159265358979 3.31612557878923 3.49065850398866 3.66519142918809 3.83972435438752 4.01425727958696 4.18879020478639 4.36332312998582 4.53785605518526 4.71238898038469 4.88692190558412 5.06145483078355 5.23598775598299 5.41052068118242 5.58505360638185 5.75958653158128 5.93411945678072 6.10865238198015 6.28318530717959 
19 21 22 23 24 25 26 27 28 29 30 31 32 33 34 35 36 37 38 1 
p 0.0415443622115596 1 3.14159265358979 3.31612557878923 3.49065850398866 3.66519142918809 3.83972435438752 4.01425727958696 4.18879020478639 4.36332312998582 4.53785605518526 4.71238898038469 4.88692190558412 5.06145483078355 5.23598775598299 5.41052068118242 5.58505360638185 5.75958653158128 5.93411945678072 6.10865238198015 6.28318530717959 
19 38 59 60 61 62 63 64 65 66 67 68 69 70 71 72 73 74 75 37 
p 0.0415443622115596 1 3.14159265358979 3.31612557878923 3.49065850398866 3.66519142918809 3.83972435438752 4.01425727958696 4.18879020478639 4.36332312998582 4.53785605518526 4.71238898038469 4.88692190558412 5.06145483078355 5.23598775598299 5.41052068118242 5.58505360638185 5.75958653158128 5.93411945678072 6.10865238198015 6.28318530717959 
2 20 1 
p 0.0415443622115596 1 0 8 
2 1 2 
p 0.0415443622115596 1 0 8 
2 21 2 
p 0.0415443622115596 1 0 8 
2 21 3 
p 0.0415443622115596 1 0 8 
Surfaces 6
2 0 0 25 0 0 1 -0.4794255386042035 0.87758256189037243 0 -0.87758256189037243 -0.4794255386042035 0 5
1 -17 6.2970462178000002e-013 0 0 0 -1 -1 0 0 0 1 0 
2 0 0 25 0 0 1 0.4794255386042035 -0.87758256189037243 0 0.87758256189037243 0.4794255386042035 -0 5
1 -17 6.2970462178000002e-013 -8 0 0 -1 -1 0 0 0 1 0 
2 0 0 -8 0 0 1 1 0 -0 -0 1 0 4.2999999999999998
2 0 0 -8 0 0 1 -1 1.2246467991500001e-016 0 -1.2246467991500001e-016 -1 0 4.2999999999999998
Triangulations 8
38 36 1 0.0190265095423277
98 -84.29533455905 -53.75771604352 98 -93.07116017795 -48.96346065748 98 -84.7782536697383 -54.4832513506701 98 -85.3798240379431 -55.1139061227027 98 -86.081767252434 -55.6305182334973 98 -86.8627551238392 -56.0173906854859 98 -87.6990577308849 -56.2627685549816 98 -88.5652644420455 -56.359196159587 98 -89.4350560047241 -56.3037435953309 98 -90.2820042424247 -56.0980957603178 98 -91.080375061521 -55.7485011599519 98 -91.8059103686701 -55.2655820492617 98 -92.4365651407027 -54.6640116810569 98 -92.9531772514973 -53.962068466566 98 -93.3400497034859 -53.1810805951608 98 -93.5854275729816 -52.3447779881151 98 -93.681855177587 -51.4785712769545 98 -93.6264026133309 -50.6087797142759 98 -93.4207547783178 -49.7618314765753 90 -84.29533455905 -53.75771604352 90 -93.07116017795 -48.96346065748 90 -84.7782536697383 -54.4832513506701 90 -85.3798240379431 -55.1139061227027 90 -86.081767252434 -55.6305182334973 90 -86.8627551238392 -56.0173906854859 90 -87.6990577308849 -56.2627685549816 90 -88.5652644420455 -56.359196159587 90 -89.4350560047241 -56.3037435953309 90 -90.2820042424247 -56.0980957603178 90 -91.080375061521 -55.7485011599519 90 -91.8059103686701 -55.2655820492617 90 -92.4365651407027 -54.6640116810569 90 -92.9531772514973 -53.962068466566 90 -93.3400497034859 -53.1810805951608 90 -93.5854275729816 -52.3447779881151 90 -93.681855177587 -51.4785712769545 90 -93.6264026133309 -50.6087797142759 90 -93.4207547783178 -49.7618314765753 0 -19 3.14159265358979 -19 0.174532925199433 -19 0.349065850398866 -19 0.523598775598299 -19 0.698131700797732 -19 0.872664625997165 -19 1.0471975511966 -19 1.22173047639603 -19 1.39626340159546 -19 1.5707963267949 -19 1.74532925199433 -19 1.91986217719376 -19 2.0943951023932 -19 2.26892802759263 -19 2.44346095279206 -19 2.61799387799149 -19 2.79252680319093 -19 2.96705972839036 -19 0 -11 3.14159265358979 -11 0.174532925199433 -11 0.349065850398866 -11 0.523598775598299 -11 0.698131700797732 -11 0.872664625997165 -11 1.0471975511966 -11 1.22173047639603 -11 1.39626340159546 -11 1.5707963267949 -11 1.74532925199433 -11 1.91986217719376 -11 2.0943951023932 -11 2.26892802759263 -11 2.44346095279206 -11 2.61799387799149 -11 2.79252680319093 -11 2.96705972839036 -11 22 1 3 22 20 1 23 3 4 23 22 3 24 4 5 24 23 4 25 5 6 25 24 5 26 6 7 26 25 6 27 7 8 27 26 7 28 8 9 28 27 8 29 9 10 29 28 9 30 10 11 30 29 10 31 11 12 31 30 11 32 12 13 32 31 12 33 13 14 33 32 13 34 14 15 34 33 14 35 15 16 35 34 15 36 35 16 36 16 17 37 36 17 37 17 18 38 37 18 38 18 19 21 38 19 21 19 2 
72 72 1 7.31248395169359e-013
98 -93.07116017795 -48.96346065748 98 -84.29533455905 -53.75771604352 98 -92.5882410672617 -48.2379253503299 98 -91.9866706990569 -47.6072705782973 98 -91.284727484566 -47.0906584675027 98 -90.5037396131608 -46.7037860155141 98 -89.6674370061152 -46.4584081460184 98 -88.8012302949546 -46.361980541413 98 -87.9314387322759 -46.4174331056691 98 -87.0844904945753 -46.6230809406822 98 -86.286119675479 -46.9726755410481 98 -85.5605843683299 -47.4555946517383 98 -84.9299295962973 -48.0571650199431 98 -84.4133174855027 -48.7591082344341 98 -84.0264450335141 -49.5400961058392 98 -83.7810671640184 -50.3763987128849 98 -83.684639559413 -51.2426054240455 98 -83.7400921236691 -52.1123969867241 98 -83.9457399586822 -52.9593452244247 98 -84.7782536697383 -54.4832513506701 98 -85.3798240379431 -55.1139061227027 98 -86.081767252434 -55.6305182334973 98 -86.8627551238392 -56.0173906854859 98 -87.6990577308849 -56.2627685549816 98 -88.5652644420455 -56.359196159587 98 -89.4350560047241 -56.3037435953309 98 -90.2820042424247 -56.0980957603178 98 -91.080375061521 -55.7485011599519 98 -91.8059103686701 -55.2655820492617 98 -92.4365651407027 -54.6640116810569 98 -92.9531772514973 -53.962068466566 98 -93.3400497034859 -53.1810805951608 98 -93.5854275729816 -52.3447779881151 98 -93.681855177587 -51.4785712769545 98 -93.6264026133309 -50.6087797142759 98 -93.4207547783178 -49.7618314765753 98 -88.7676038879 -55.55 98 -88.7676038879 -46.95 98 -88.0209167239322 -55.4846733379525 98 -87.2969172715996 -55.2906782693794 98 -86.6176038879 -54.9739092362731 98 -86.0036171662479 -54.5439911054116 98 -85.4736127824884 -54.0139867216521 98 -85.0436946516269 -53.4 98 -84.7269256185206 -52.7206866163004 98 -84.5329305499475 -51.9966871639678 98 -84.4676038879 -51.25 98 -84.5329305499475 -50.5033128360322 98 -84.7269256185206 -49.7793133836996 98 -85.0436946516269 -49.1 98 -85.4736127824884 -48.4860132783479 98 -86.0036171662479 -47.9560088945884 98 -86.6176038879 -47.5260907637269 98 -87.2969172715996 -47.2093217306206 98 -88.0209167239322 -47.0153266620475 98 -89.5142910518678 -47.0153266620475 98 -90.2382905042004 -47.2093217306206 98 -90.9176038879 -47.5260907637269 98 -91.5315906095521 -47.9560088945884 98 -92.0615949933116 -48.4860132783479 98 -92.4915131241731 -49.1 98 -92.8082821572794 -49.7793133836996 98 -93.0022772258525 -50.5033128360322 98 -93.0676038879 -51.25 98 -93.0022772258525 -51.9966871639678 98 -92.8082821572794 -52.7206866163004 98 -92.4915131241731 -53.4 98 -92.0615949933116 -54.0139867216521 98 -91.5315906095521 -54.5439911054116 98 -90.9176038879 -54.9739092362731 98 -90.2382905042004 -55.2906782693794 98 -89.5142910518678 -55.4846733379525 -14.713460657479 -4.3035562900525 -19.507716043521 4.47226932885123 -13.9879253503299 -3.82063717936238 -13.3572705782973 -3.21906681115754 -12.8406584675027 -2.51712359666659 -12.4537860155141 -1.73613572526143 -12.2084081460184 -0.899833118215779 -12.111980541413 -0.0336264070551797 -12.1674331056691 0.8361651556235 -12.3730809406822 1.68311339332403 -12.7226755410481 2.48148421242038 -13.2055946517383 3.20701951956943 -13.8071650199431 3.83767429160203 -14.5091082344341 4.35428640239668 -15.2900961058392 4.74115885438524 -16.1263987128849 4.98653672388093 -16.9926054240455 5.08296432848633 -17.8623969867241 5.02751176423022 -18.7093452244247 4.82186392921717 -20.2332513506701 3.9893502181611 -20.8639061227027 3.38777984995626 -21.3805182334973 2.68583663546531 -21.7673906854859 1.90484876406016 -22.0127685549816 1.06854615701451 -22.109196159587 0.202339445853908 -22.0537435953309 -0.667452116824772 -21.8480957603178 -1.51440035452531 -21.4985011599519 -2.31277117362165 -21.0155820492617 -3.0383064807707 -20.4140116810569 -3.6689612528033 -19.712068466566 -4.18557336359795 -18.9310805951608 -4.57244581558651 -18.0947779881151 -4.81782368508221 -17.2285712769545 -4.9142512896876 -16.3587797142759 -4.85879872543149 -15.5118314765753 -4.65315089041844 -21.3 -6.25277607468888e-013 -12.7 -6.24389429049188e-013 -21.2346733379525 0.746687163967175 -21.0406782693794 1.47068661629975 -20.7239092362731 2.14999999999937 -20.2939911054116 2.76398672165149 -19.7639867216521 3.29399110541098 -19.15 3.72390923627246 -18.4706866163004 4.04067826937878 -17.7466871639678 4.23467333795187 -17 4.29999999999937 -16.2533128360322 4.23467333795187 -15.5293133836996 4.04067826937878 -14.85 3.72390923627246 -14.2360132783479 3.29399110541098 -13.7060088945884 2.76398672165149 -13.2760907637269 2.14999999999938 -12.9593217306206 1.47068661629975 -12.7653266620475 0.74668716396718 -12.7653266620475 -0.746687163968424 -12.9593217306206 -1.470686616301 -13.2760907637269 -2.15000000000062 -13.7060088945884 -2.76398672165274 -14.2360132783479 -3.29399110541223 -14.85 -3.72390923627371 -15.5293133836996 -4.04067826938003 -16.2533128360322 -4.23467333795312 -17 -4.30000000000062 -17.7466871639678 -4.23467333795312 -18.4706866163004 -4.04067826938003 -19.15 -3.72390923627371 -19.7639867216521 -3.29399110541224 -20.2939911054116 -2.76398672165275 -20.7239092362731 -2.15000000000064 -21.0406782693794 -1.47068661630101 -21.2346733379525 -0.74668716396844 5 59 4 5 58 59 2 20 44 1 62 36 45 2 44 41 23 40 41 22 23 69 29 30 61 62 1 68 30 31 68 69 30 70 28 29 70 29 69 3 61 1 67 31 32 6 58 5 6 57 58 67 68 31 17 18 47 42 22 41 19 2 45 71 27 28 71 28 70 66 32 33 66 67 32 60 61 3 10 53 54 10 54 55 72 26 27 10 55 9 15 48 49 46 19 45 72 27 71 15 16 48 65 66 33 11 53 10 65 33 34 21 22 42 4 60 3 11 52 53 14 49 50 14 15 49 43 21 42 37 25 26 12 52 11 12 51 52 13 14 50 13 51 12 13 50 51 7 56 57 37 26 72 7 57 6 9 55 38 18 19 46 9 38 8 64 65 34 16 47 48 35 64 34 16 17 47 39 25 37 39 24 25 59 60 4 20 21 43 63 64 35 47 18 46 44 20 43 36 63 35 40 24 39 40 23 24 8 56 7 8 38 56 62 63 36 
38 36 1 0.0190265095423277
98 -93.07116017795 -48.96346065748 98 -84.29533455905 -53.75771604352 98 -92.5882410672617 -48.2379253503299 98 -91.9866706990569 -47.6072705782973 98 -91.284727484566 -47.0906584675027 98 -90.5037396131608 -46.7037860155141 98 -89.6674370061152 -46.4584081460184 98 -88.8012302949546 -46.361980541413 98 -87.9314387322759 -46.4174331056691 98 -87.0844904945753 -46.6230809406822 98 -86.286119675479 -46.9726755410481 98 -85.5605843683299 -47.4555946517383 98 -84.9299295962973 -48.0571650199431 98 -84.4133174855027 -48.7591082344341 98 -84.0264450335141 -49.5400961058392 98 -83.7810671640184 -50.3763987128849 98 -83.684639559413 -51.2426054240455 98 -83.7400921236691 -52.1123969867241 98 -83.9457399586822 -52.9593452244247 90 -93.07116017795 -48.96346065748 90 -84.29533455905 -53.75771604352 90 -92.5882410672617 -48.2379253503299 90 -91.9866706990569 -47.6072705782973 90 -91.284727484566 -47.0906584675027 90 -90.5037396131608 -46.7037860155141 90 -89.6674370061152 -46.4584081460184 90 -88.8012302949546 -46.361980541413 90 -87.9314387322759 -46.4174331056691 90 -87.0844904945753 -46.6230809406822 90 -86.286119675479 -46.9726755410481 90 -85.5605843683299 -47.4555946517383 90 -84.9299295962973 -48.0571650199431 90 -84.4133174855027 -48.7591082344341 90 -84.0264450335141 -49.5400961058392 90 -83.7810671640184 -50.3763987128849 90 -83.684639559413 -51.2426054240455 90 -83.7400921236691 -52.1123969867241 90 -83.9457399586822 -52.9593452244247 0 -19 3.14159265358979 -19 0.174532925199433 -19 0.349065850398866 -19 0.523598775598299 -19 0.698131700797732 -19 0.872664625997165 -19 1.0471975511966 -19 1.22173047639603 -19 1.39626340159546 -19 1.5707963267949 -19 1.74532925199433 -19 1.91986217719376 -19 2.0943951023932 -19 2.26892802759263 -19 2.44346095279206 -19 2.61799387799149 -19 2.79252680319093 -19 2.96705972839036 -19 0 -11 3.14159265358979 -11 0.174532925199433 -11 0.349065850398866 -11 0.523598775598299 -11 0.698131700797732 -11 0.872664625997165 -11 1.0471975511966 -11 1.22173047639603 -11 1.39626340159546 -11 1.5707963267949 -11 1.74532925199433 -11 1.91986217719376 -11 2.0943951023932 -11 2.26892802759263 -11 2.44346095279206 -11 2.61799387799149 -11 2.79252680319093 -11 2.96705972839036 -11 22 1 3 22 20 1 23 3 4 23 22 3 24 4 5 24 23 4 25 5 6 25 24 5 26 6 7 26 25 6 27 7 8 27 26 7 28 8 9 28 27 8 29 9 10 29 28 9 30 10 11 30 29 10 31 11 12 31 30 11 32 12 13 32 31 12 33 13 14 33 32 13 34 14 15 34 33 14 35 15 16 35 34 15 36 35 16 36 16 17 37 36 17 37 17 18 38 37 18 38 18 19 21 38 19 21 19 2 
75 75 1 2.48848497363952e-010
90 -93.07116017795 -48.96346065748 90 -84.29533455905 -53.75771604352 90 -92.5882410672617 -48.2379253503299 90 -91.9866706990569 -47.6072705782973 90 -91.284727484566 -47.0906584675027 90 -90.5037396131608 -46.7037860155141 90 -89.6674370061152 -46.4584081460184 90 -88.8012302949546 -46.361980541413 90 -87.9314387322759 -46.4174331056691 90 -87.0844904945753 -46.6230809406822 90 -86.286119675479 -46.9726755410481 90 -85.5605843683299 -47.4555946517383 90 -84.9299295962973 -48.0571650199431 90 -84.4133174855027 -48.7591082344341 90 -84.0264450335141 -49.5400961058392 90 -83.7810671640184 -50.3763987128849 90 -83.684639559413 -51.2426054240455 90 -83.7400921236691 -52.1123969867241 90 -83.9457399586822 -52.9593452244247 90 -84.7782536697383 -54.4832513506701 90 -85.3798240379431 -55.1139061227027 90 -86.081767252434 -55.6305182334973 90 -86.8627551238392 -56.0173906854859 90 -87.6990577308849 -56.2627685549816 90 -88.5652644420455 -56.359196159587 90 -89.4350560047241 -56.3037435953309 90 -90.2820042424247 -56.0980957603178 90 -91.080375061521 -55.7485011599519 90 -91.8059103686701 -55.2655820492617 90 -92.4365651407027 -54.6640116810569 90 -92.9531772514973 -53.962068466566 90 -93.3400497034859 -53.1810805951608 90 -93.5854275729816 -52.3447779881151 90 -93.681855177587 -51.4785712769545 90 -93.6264026133309 -50.6087797142759 90 -93.4207547783178 -49.7618314765753 90 -88.7676038879 -55.55 90 -88.7676038879 -46.95 90 -88.0857739694954 -55.4955959812151 90 -87.4211745684365 -55.333761316518 90 -86.7973128657653 -55.0720352295739 90 -86.2281940595083 -54.7200684425053 90 -85.7205558450308 -54.2840527150848 90 -85.286724534829 -53.7745749993087 90 -84.9371952615327 -53.2039570444984 90 -84.6804186803463 -52.5859991200746 90 -84.5226295446825 -51.9357060700271 90 -84.4676474085453 -51.268809293705 90 -84.5167995722516 -50.6014337347594 90 -84.6688921671666 -49.9497837867669 90 -84.9202475661575 -49.3296276362842 90 -85.2647874005216 -48.7559568583188 90 -85.6941455955836 -48.2426998745444 90 -86.1979333893932 -47.8022796810798 90 -86.7639722356464 -47.4453405152437 90 -87.3785186851579 -47.1805476892632 90 -88.0266926931638 -47.0143125355701 90 -88.3957564379419 -46.9661082892975 90 -89.5142910518678 -47.0153266620475 90 -90.2382905042004 -47.2093217306206 90 -90.9176038879 -47.5260907637269 90 -91.5315906095521 -47.9560088945884 90 -92.0615949933116 -48.4860132783479 90 -92.4915131241731 -49.1 90 -92.8082821572794 -49.7793133836996 90 -93.0022772258525 -50.5033128360322 90 -93.0676038879 -51.25 90 -93.0022772258525 -51.9966871639678 90 -92.8082821572794 -52.7206866163004 90 -92.4915131241731 -53.4 90 -92.0615949933116 -54.0139867216521 90 -91.5315906095521 -54.5439911054116 90 -90.9176038879 -54.9739092362731 90 -90.2382905042004 -55.2906782693794 90 -89.5142910518678 -55.4846733379525 -14.713460657479 -4.3035562900525 -19.507716043521 4.47226932885123 -13.9879253503299 -3.82063717936238 -13.3572705782973 -3.21906681115754 -12.8406584675027 -2.51712359666659 -12.4537860155141 -1.73613572526143 -12.2084081460184 -0.899833118215779 -12.111980541413 -0.0336264070551797 -12.1674331056691 0.8361651556235 -12.3730809406822 1.68311339332403 -12.7226755410481 2.48148421242038 -13.2055946517383 3.20701951956943 -13.8071650199431 3.83767429160203 -14.5091082344341 4.35428640239668 -15.2900961058392 4.74115885438524 -16.1263987128849 4.98653672388093 -16.9926054240455 5.08296432848633 -17.8623969867241 5.02751176423022 -18.7093452244247 4.82186392921717 -20.2332513506701 3.9893502181611 -20.8639061227027 3.38777984995626 -21.3805182334973 2.68583663546531 -21.7673906854859 1.90484876406016 -22.0127685549816 1.06854615701451 -22.109196159587 0.202339445853908 -22.0537435953309 -0.667452116824772 -21.8480957603178 -1.51440035452531 -21.4985011599519 -2.31277117362165 -21.0155820492617 -3.0383064807707 -20.4140116810569 -3.6689612528033 -19.712068466566 -4.18557336359795 -18.9310805951608 -4.57244581558651 -18.0947779881151 -4.81782368508221 -17.2285712769545 -4.9142512896876 -16.3587797142759 -4.85879872543149 -15.5118314765753 -4.65315089041844 -21.30000000075 0 -12.69999999925 0 -21.2455959812151 0.681829918403935 -21.083761316518 1.34642931946284 -20.822035229574 1.97029102213405 -20.4700684425053 2.53940982839109 -20.0340527150848 3.04704804286856 -19.5245749993087 3.48087935307032 -18.9539570444984 3.83040862636666 -18.3359991200746 4.08718520755307 -17.6857060700271 4.24497434321684 -17.018809293705 4.29995647935408 -16.3514337347594 4.25080431564773 -15.6997837867669 4.09871172073278 -15.0796276362842 3.84735632174191 -14.5059568583188 3.50281648737777 -13.9926998745444 3.07345829231577 -13.5522796810798 2.56967049850618 -13.1953405152437 2.00363165225295 -12.9305476892632 1.38908520274145 -12.7643125355701 0.740911194735598 -12.7161082892975 0.371847449957504 -12.7653266620475 -0.746687163968424 -12.9593217306206 -1.470686616301 -13.2760907637269 -2.15000000000062 -13.7060088945884 -2.76398672165274 -14.2360132783479 -3.29399110541223 -14.85 -3.72390923627371 -15.5293133836996 -4.04067826938003 -16.2533128360322 -4.23467333795312 -17 -4.30000000000062 -17.7466871639678 -4.23467333795312 -18.4706866163004 -4.04067826938003 -19.15 -3.72390923627371 -19.7639867216521 -3.29399110541224 -20.2939911054116 -2.76398672165275 -20.7239092362731 -2.15000000000064 -21.0406782693794 -1.47068661630101 -21.2346733379525 -0.74668716396844 16 49 50 42 22 41 16 17 49 3 64 1 63 64 3 10 56 9 21 22 42 10 55 56 43 21 42 4 63 3 15 16 50 15 50 51 62 63 4 72 29 30 11 55 10 11 54 55 20 21 43 71 30 31 14 15 51 44 20 43 71 72 30 14 51 52 12 54 11 73 28 29 12 53 54 5 62 4 73 29 72 5 61 62 13 14 52 70 31 32 13 53 12 13 52 53 70 71 31 2 44 45 2 20 44 74 27 28 74 28 73 69 32 33 69 70 32 6 60 61 6 61 5 19 45 46 19 2 45 75 26 27 75 27 74 68 69 33 7 59 60 68 33 34 7 60 6 18 46 47 18 19 46 37 25 26 37 26 75 67 68 34 8 58 38 8 38 59 8 59 7 35 67 34 39 25 37 39 24 25 17 47 48 17 48 49 17 18 47 66 67 35 36 66 35 40 24 39 9 56 57 9 57 58 40 23 24 9 58 8 65 66 36 1 65 36 41 23 40 22 23 41 64 65 1 
78 78 1 2.75622369372286e-009
-4.24999999841 7.36121592955 -5.51244738744572e-009 -8.49999999685 0 -5.46208411833504e-009 -5.32485088587481 6.62539451239491 0 -6.27469308157569 5.73394009086658 0 -7.07715315398174 4.70785486470515 0 -7.71338136360332 3.57123098892913 0 -8.16848369684125 2.35067917778866 0 -8.41671551716222 1.18695072117808 0 -4.24999999841 -7.36121592953 -5.50653567188419e-009 -8.40018540089848 -1.29875888157015 0 -8.1030843242192 -2.56707356070532 0 -7.61569848883961 -3.77506698066271 0 -6.94946744418405 -4.89436870997906 0 -6.11998974338397 -5.89877479167804 0 -5.23628724453577 -6.69561408637195 0 4.24999999841 -7.36121592953 -5.50653567188419e-009 -3.07533451502377 -7.92415339471117 0 -1.82839124262001 -8.30101365475815 0 -0.538545334551557 -8.48292184984858 0 0.7639139205913 -8.46559970441579 0 2.0484939581644 -8.24945398225773 0 3.18042827620523 -7.88256481625535 0 8.49999999685 6.25277607468888e-013 -5.46208411833504e-009 5.32485088582365 -6.62539451244697 0 6.27469308140724 -5.73394009104449 0 7.07715315379247 -4.70785486498096 0 7.71338136335328 -3.57123098949526 0 8.16848369617747 -2.35067918004965 0 8.41671551684451 -1.1869507229402 0 4.24999999841 7.36121592955 -5.51244738744572e-009 8.4001854009319 1.29875888135481 0 8.10308432440721 2.56707356007932 0 7.61569848925427 3.77506697981568 0 6.94946744483754 4.89436870904377 0 6.11998974460999 5.89877479040949 0 5.23628724535756 6.69561408571951 0 3.07533451507011 7.92415339470236 0 1.82839124286966 8.30101365470144 0 0.53854533490194 8.4829218498237 0 -0.763913919989598 8.46559970447704 0 -2.04849395582743 8.24945398282689 0 -3.18042827445721 7.88256481689228 0 4.3 0 0 -4.3 0 0 4.23467333795249 0.746687163967806 0 4.04067826937941 1.47068661630037 0 3.72390923627309 2.15000000000001 0 3.29399110541161 2.76398672165212 0 2.76398672165212 3.29399110541161 0 2.15 3.72390923627309 0 1.47068661630038 4.0406782693794 0 0.746687163967799 4.2346733379525 0 0 4.3 0 -0.746687163967799 4.2346733379525 0 -1.47068661630038 4.0406782693794 0 -2.15 3.72390923627309 0 -2.76398672165212 3.29399110541161 0 -3.29399110541161 2.76398672165212 0 -3.72390923627309 2.15000000000001 0 -4.04067826937941 1.47068661630038 0 -4.23467333795249 0.746687163967806 0 -4.23467333795249 -0.746687163967806 0 -4.04067826937941 -1.47068661630037 0 -3.72390923627309 -2.14999999999999 0 -3.29399110541161 -2.76398672165212 0 -2.76398672165212 -3.29399110541161 0 -2.15000000000001 -3.72390923627309 0 -1.47068661630038 -4.0406782693794 0 -0.746687163967806 -4.23467333795249 0 -7.105427357601e-015 -4.3 0 0.746687163967792 -4.2346733379525 0 1.47068661630036 -4.04067826937941 0 2.14999999999999 -3.72390923627309 0 2.76398672165211 -3.29399110541161 0 3.2939911054116 -2.76398672165213 0 3.72390923627308 -2.15000000000001 0 4.0406782693794 -1.47068661630038 0 4.23467333795249 -0.74668716396782 0 -12.75000000159 7.36121592954937 -8.50000000315 -6.32383034826489e-013 -11.6751491141252 6.62539451239427 -10.7253069184243 5.73394009086595 -9.92284684601826 4.70785486470452 -9.28661863639668 3.5712309889285 -8.83151630315875 2.35067917778803 -8.58328448283778 1.18695072117745 -12.75000000159 -7.36121592953063 -8.59981459910152 -1.29875888157078 -8.8969156757808 -2.56707356070596 -9.38430151116039 -3.77506698066334 -10.0505325558159 -4.89436870997969 -10.880010256616 -5.89877479167867 -11.7637127554642 -6.69561408637258 -21.24999999841 -7.36121592953063 -13.9246654849762 -7.9241533947118 -15.17160875738 -8.30101365475878 -16.4614546654484 -8.48292184984921 -17.7639139205913 -8.46559970441642 -19.0484939581644 -8.24945398225837 -20.1804282762052 -7.88256481625598 -25.49999999685 1.77635683940025e-015 -22.3248508858236 -6.6253945124476 -23.2746930814072 -5.73394009104511 -24.0771531537925 -4.70785486498159 -24.7133813633533 -3.57123098949589 -25.1684836961775 -2.35067918005029 -25.4167155168445 -1.18695072294083 -21.24999999841 7.36121592954937 -25.4001854009319 1.29875888135419 -25.1030843244072 2.56707356007869 -24.6156984892543 3.77506697981505 -23.9494674448375 4.89436870904314 -23.11998974461 5.89877479040886 -22.2362872453576 6.69561408571888 -20.0753345150701 7.92415339470173 -18.8283912428697 8.3010136547008 -17.5385453349019 8.48292184982306 -16.2360860800104 8.46559970447642 -14.9515060441726 8.24945398282627 -13.8195717255428 7.88256481689165 -21.3 -6.30606677987089e-013 -12.7 -6.28830321147689e-013 -21.2346733379525 0.74668716396717 -21.0406782693794 1.47068661629975 -20.7239092362731 2.14999999999937 -20.2939911054116 2.76398672165149 -19.7639867216521 3.29399110541098 -19.15 3.72390923627246 -18.4706866163004 4.04067826937878 -17.7466871639678 4.23467333795186 -17 4.29999999999937 -16.2533128360322 4.23467333795186 -15.5293133836996 4.04067826937878 -14.85 3.72390923627246 -14.2360132783479 3.29399110541098 -13.7060088945884 2.76398672165149 -13.2760907637269 2.14999999999937 -12.9593217306206 1.47068661629975 -12.7653266620475 0.746687163967175 -12.7653266620475 -0.746687163968429 -12.9593217306206 -1.470686616301 -13.2760907637269 -2.15000000000063 -13.7060088945884 -2.76398672165275 -14.2360132783479 -3.29399110541223 -14.85 -3.72390923627371 -15.5293133836996 -4.04067826938003 -16.2533128360322 -4.23467333795312 -17 -4.30000000000063 -17.7466871639678 -4.23467333795313 -18.4706866163004 -4.04067826938004 -19.15 -3.72390923627372 -19.7639867216521 -3.29399110541224 -20.2939911054116 -2.76398672165276 -20.7239092362731 -2.15000000000064 -21.0406782693794 -1.47068661630102 -21.2346733379525 -0.746687163968446 5 59 6 5 58 59 36 35 49 3 1 56 3 56 57 45 31 43 4 58 5 45 32 31 4 3 57 4 57 58 50 36 49 37 50 51 69 19 18 69 70 19 37 30 50 46 33 32 46 32 45 13 65 14 13 64 65 68 18 17 68 69 18 47 33 46 47 34 33 75 26 25 67 17 9 74 25 24 38 51 52 30 36 50 74 75 25 76 27 26 38 37 51 67 68 17 76 26 75 15 67 9 73 74 24 10 44 62 10 62 11 48 34 47 73 16 22 39 38 52 73 24 16 39 52 53 77 27 76 2 44 10 77 28 27 66 67 15 40 53 54 72 22 21 40 39 53 8 44 2 72 73 22 78 28 77 78 29 28 35 34 48 8 61 44 11 63 12 14 66 15 41 40 54 11 62 63 41 54 55 12 64 13 12 63 64 71 72 21 49 35 48 71 21 20 7 61 8 7 60 61 42 55 56 43 29 78 43 23 29 43 31 23 42 41 55 6 60 7 65 66 14 6 59 60 70 20 19 1 42 56 70 71 20 
41 39 1 0.0137784918630207
4.3 0 0 -4.3 0 0 4.23467333795249 0.746687163967806 0 4.04067826937941 1.47068661630037 0 3.72390923627309 2.15000000000001 0 3.29399110541161 2.76398672165212 0 2.76398672165212 3.29399110541161 0 2.15 3.72390923627309 0 1.47068661630038 4.0406782693794 0 0.746687163967799 4.2346733379525 0 0 4.3 0 -0.746687163967799 4.2346733379525 0 -1.47068661630038 4.0406782693794 0 -2.15 3.72390923627309 0 -2.76398672165212 3.29399110541161 0 -3.29399110541161 2.76398672165212 0 -3.72390923627309 2.15000000000001 0 -4.04067826937941 1.47068661630038 0 -4.23467333795249 0.746687163967806 0 4.3 0 -8 -4.3 0 -8 4.24559598121513 0.68182991840456 -8 4.08376131651803 1.34642931946347 -8 3.82203522957395 1.97029102213467 -8 3.47006844250529 2.53940982839171 -8 3.03405271508481 3.04704804286918 -8 2.52457499930875 3.48087935307095 -8 1.95395704449841 3.83040862636729 -8 1.3359991200746 4.0871852075537 -8 0.685706070027145 4.24497434321746 -8 0.0188092937050115 4.29995647935471 -8 -0.648566265240625 4.25080431564837 -8 -1.30021621323311 4.09871172073342 -8 -1.9203723637158 3.84735632174254 -8 -2.49404314168119 3.5028164873784 -8 -3.00730012545559 3.07345829231639 -8 -3.44772031892018 2.56967049850681 -8 -3.80465948475633 2.00363165225357 -8 -4.06945231073679 1.38908520274207 -8 -4.23568746442994 0.740911194736228 -8 -4.28389171070251 0.371847449958125 -8 0 8 3.14159265358979 8 0.174532925199433 8 0.349065850398866 8 0.523598775598299 8 0.698131700797732 8 0.872664625997165 8 1.0471975511966 8 1.22173047639603 8 1.39626340159546 8 1.5707963267949 8 1.74532925199433 8 1.91986217719376 8 2.0943951023932 8 2.26892802759263 8 2.44346095279206 8 2.61799387799149 8 2.79252680319093 8 2.96705972839036 8 0 0 3.14159265358965 0 0.159238705461425 0 0.318477410922704 0 0.475976121450556 0 0.631753849899673 0 0.78753157834879 0 0.943309306797907 0 1.09908703524702 0 1.25486476369614 0 1.41064249214526 0 1.56642022059437 0 1.72219794904349 0 1.87797567749261 0 2.03375340594173 0 2.18953113439084 0 2.34530886283996 0 2.50108659128908 0 2.65686431973819 0 2.81264204818731 0 2.96841977663643 0 3.05500621511304 0 1 20 22 3 22 23 3 1 22 4 23 24 4 3 23 5 24 25 5 4 24 6 25 26 6 5 25 7 26 27 7 6 26 8 27 28 8 7 27 9 28 29 9 8 28 10 29 30 10 9 29 11 30 31 11 31 32 11 10 30 12 32 33 12 11 32 13 33 34 13 12 33 14 34 35 14 13 34 15 35 36 15 14 35 16 15 36 16 36 37 17 16 37 17 37 38 18 17 38 18 38 39 19 18 39 19 39 40 19 40 41 2 19 41 2 41 21 
38 36 1 0.0163627982055025
4.3 0 -8 4.3 0 0 -4.3 0 0 -4.23467333795249 -0.746687163967806 0 -4.04067826937941 -1.47068661630037 0 -3.72390923627309 -2.14999999999999 0 -3.29399110541161 -2.76398672165212 0 -2.76398672165212 -3.29399110541161 0 -2.15000000000001 -3.72390923627309 0 -1.47068661630038 -4.0406782693794 0 -0.746687163967806 -4.23467333795249 0 -7.105427357601e-015 -4.3 0 0.746687163967792 -4.2346733379525 0 1.47068661630036 -4.04067826937941 0 2.14999999999999 -3.72390923627309 0 2.76398672165211 -3.29399110541161 0 3.2939911054116 -2.76398672165213 0 3.72390923627308 -2.15000000000001 0 4.0406782693794 -1.47068661630038 0 4.23467333795249 -0.74668716396782 0 -4.3 0 -8 -4.23467333795249 -0.746687163967806 -8 -4.04067826937941 -1.47068661630037 -8 -3.72390923627309 -2.14999999999999 -8 -3.29399110541161 -2.76398672165212 -8 -2.76398672165212 -3.29399110541161 -8 -2.15000000000001 -3.72390923627309 -8 -1.47068661630038 -4.0406782693794 -8 -0.746687163967806 -4.23467333795249 -8 -7.105427357601e-015 -4.3 -8 0.746687163967792 -4.2346733379525 -8 1.47068661630036 -4.04067826937941 -8 2.14999999999999 -3.72390923627309 -8 2.76398672165211 -3.29399110541161 -8 3.2939911054116 -2.76398672165213 -8 3.72390923627308 -2.15000000000001 -8 4.0406782693794 -1.47068661630038 -8 4.23467333795249 -0.74668716396782 -8 3.14159265358979 0 3.14159265358979 8 0 8 0.174532925199433 8 0.349065850398866 8 0.523598775598298 8 0.698131700797731 8 0.872664625997164 8 1.0471975511966 8 1.22173047639603 8 1.39626340159546 8 1.57079632679489 8 1.74532925199433 8 1.91986217719376 8 2.09439510239319 8 2.26892802759263 8 2.44346095279206 8 2.61799387799149 8 2.79252680319092 8 2.96705972839036 8 1.16265255507864e-028 0 0.174532925199433 0 0.349065850398866 0 0.523598775598298 0 0.698131700797731 0 0.872664625997164 0 1.0471975511966 0 1.22173047639603 0 1.39626340159546 0 1.57079632679489 0 1.74532925199433 0 1.91986217719376 0 2.09439510239319 0 2.26892802759263 0 2.44346095279206 0 2.61799387799149 0 2.79252680319092 0 2.96705972839036 0 4 3 21 4 21 22 5 22 23 5 4 22 6 23 24 6 5 23 7 24 25 7 6 24 8 25 26 8 7 25 9 26 27 9 8 26 10 27 28 10 9 27 11 28 29 11 10 28 12 29 30 12 11 29 13 30 31 13 12 30 14 31 32 14 13 31 15 32 33 15 14 32 16 33 34 16 15 33 17 34 35 17 16 34 18 17 35 18 35 36 19 18 36 19 36 37 20 19 37 20 37 38 2 20 38 2 38 1 
82 82 1 2.49968943614517e-011
-8.5 0 -8 -4.24999999999 -7.36121593227 -7.99999999995001 -8.40018540092608 -1.29875888141476 -8 -8.10308432437579 -2.56707356018343 -8 -7.61569848917939 -3.77506697997039 -8 -6.94946744471219 -4.894368709221 -8 -6.11998974453454 -5.89877479048958 -8 -5.23628724536161 -6.6956140857141 -8 -4.24999999999 7.36121593227 -7.99999999995001 -5.32485088584428 6.6253945124256 -8 -6.27469308137196 5.7339400910748 -8 -7.07715315376205 4.70785486502568 -8 -7.71338136342095 3.5712309892828 -8 -8.16848369663295 2.35067917849511 -8 -8.41671551708928 1.18695072168747 -8 4.24999999999 7.36121593227 -7.99999999995001 3.07533451507734 7.9241533946938 -8 1.82839124279298 8.30101365472377 -8 0.53854533480839 8.48292184983588 -8 -0.763913920355265 8.46559970443134 -8 -2.04849395816914 8.24945398226147 -8 -3.18042827631687 7.88256481622864 -8 8.5 6.25277607468888e-013 -8 8.40018540090333 1.29875888153018 -8 8.10308432425059 2.56707356058278 -8 7.61569848891691 3.77506698050227 -8 6.94946744415201 4.89436870999509 -8 6.11998974235976 5.89877479276181 -8 5.23628724355888 6.69561408722089 -8 4.24999999999 -7.36121593227 -7.99999999995001 5.32485088582394 -6.62539451244263 -8 6.27469308144101 -5.73394009100667 -8 7.0771531538316 -4.70785486492322 -8 7.7133813634586 -3.57123098923289 -8 8.16848369669361 -2.35067917827747 -8 8.41671551711294 -1.18695072146951 -8 -3.07533451507859 -7.9241533946923 -8 -1.82839124279514 -8.30101365471634 -8 -0.538545334804958 -8.48292184982924 -8 0.763913919987679 -8.46559970449047 -8 2.04849395547086 -8.2494539829154 -8 3.1804282742014 -7.8825648169725 -8 4.3 0 -8 -4.3 0 -8 4.23455101313006 0.747363314344909 -8 4.04019895746097 1.47199790932089 -8 3.75931857942805 2.08746813283113 -8 3.4260637364825 2.5984728542787 -8 3.02383712583925 3.05718619198873 -8 2.5607575811305 3.45434806829586 -8 2.04613456556392 3.78197266299547 -8 1.49030500822243 4.03348004127878 -8 0.9044865045393 4.20379608912801 -8 0.300477821441376 4.28948794680059 -8 -0.309600066675621 4.28883622055926 -8 -0.913449634116617 4.20185664305372 -8 -1.49888988014232 4.03030127608029 -8 -2.05416838009953 3.77761376067718 -8 -2.56811251630162 3.44888054698671 -8 -3.03034745542328 3.05073667974969 -8 -3.43158013577811 2.59118526679302 -8 -3.76375149850233 2.07945791396024 -8 -4.02015913494765 1.52588276063615 -8 -4.19563704776601 0.941609520549733 -8 -4.27382957368417 0.47368648051804 -8 -4.23467333795249 -0.746687163967806 -8 -4.04067826937941 -1.47068661630037 -8 -3.72390923627309 -2.14999999999999 -8 -3.29399110541161 -2.76398672165212 -8 -2.76398672165212 -3.29399110541161 -8 -2.15000000000001 -3.72390923627309 -8 -1.47068661630038 -4.0406782693794 -8 -0.746687163967806 -4.23467333795249 -8 -7.105427357601e-015 -4.3 -8 0.746687163967792 -4.2346733379525 -8 1.47068661630036 -4.04067826937941 -8 2.14999999999999 -3.72390923627309 -8 2.76398672165211 -3.29399110541161 -8 3.2939911054116 -2.76398672165213 -8 3.72390923627308 -2.15000000000001 -8 4.0406782693794 -1.47068661630038 -8 4.23467333795249 -0.74668716396782 -8 -8.5 -6.28830321147689e-013 -12.75000000001 -7.36121593227063 -8.59981459907392 -1.29875888141539 -8.89691567562421 -2.56707356018406 -9.38430151082061 -3.77506697997103 -10.0505325552878 -4.89436870922163 -10.8800102554655 -5.89877479049022 -11.7637127546384 -6.69561408571472 -12.75000000001 7.36121593226937 -11.6751491141557 6.62539451242497 -10.725306918628 5.73394009107417 -9.92284684623795 4.70785486502506 -9.28661863657905 3.57123098928217 -8.83151630336705 2.35067917849449 -8.58328448291072 1.18695072168684 -21.24999999999 7.36121593226937 -20.0753345150773 7.92415339469318 -18.828391242793 8.30101365472316 -17.5385453348084 8.48292184983526 -16.2360860796447 8.46559970443071 -14.9515060418309 8.24945398226085 -13.8195717236831 7.88256481622801 -25.5 0 -25.4001854009033 1.29875888152955 -25.1030843242506 2.56707356058215 -24.6156984889169 3.77506698050164 -23.949467444152 4.89436870999447 -23.1199897423598 5.89877479276119 -22.2362872435589 6.69561408722027 -21.24999999999 -7.36121593227063 -22.3248508858239 -6.62539451244326 -23.274693081441 -5.73394009100731 -24.0771531538316 -4.70785486492385 -24.7133813634586 -3.57123098923351 -25.1684836966936 -2.3506791782781 -25.4167155171129 -1.18695072147014 -13.9246654849214 -7.92415339469293 -15.1716087572049 -8.30101365471697 -16.461454665195 -8.48292184982987 -17.7639139199877 -8.46559970449111 -19.0484939554709 -8.24945398291603 -20.1804282742014 -7.88256481697313 -21.3 -6.30606677987089e-013 -12.7 -6.28830321147689e-013 -21.2345510131301 0.747363314344277 -21.040198957461 1.47199790932026 -20.759318579428 2.08746813283051 -20.4260637364825 2.59847285427807 -20.0238371258393 3.0571861919881 -19.5607575811305 3.45434806829523 -19.0461345655639 3.78197266299485 -18.4903050082224 4.03348004127815 -17.9044865045393 4.20379608912737 -17.3004778214414 4.28948794679996 -16.6903999333244 4.28883622055864 -16.0865503658834 4.20185664305309 -15.5011101198577 4.03030127607966 -14.9458316199005 3.77761376067656 -14.4318874836984 3.44888054698609 -13.9696525445767 3.05073667974906 -13.5684198642219 2.59118526679239 -13.2362485014977 2.07945791395961 -12.9798408650523 1.52588276063552 -12.804362952234 0.941609520549109 -12.7261704263158 0.473686480517406 -12.7653266620475 -0.746687163968429 -12.9593217306206 -1.470686616301 -13.2760907637269 -2.15000000000063 -13.7060088945884 -2.76398672165275 -14.2360132783479 -3.29399110541223 -14.85 -3.72390923627371 -15.5293133836996 -4.04067826938003 -16.2533128360322 -4.23467333795312 -17 -4.30000000000063 -17.7466871639678 -4.23467333795313 -18.4706866163004 -4.04067826938004 -19.15 -3.72390923627372 -19.7639867216521 -3.29399110541224 -20.2939911054116 -2.76398672165276 -20.7239092362731 -2.15000000000064 -21.0406782693794 -1.47068661630102 -21.2346733379525 -0.746687163968446 73 74 39 4 66 67 73 39 38 4 67 5 45 25 24 45 24 43 72 38 37 72 73 38 46 26 25 46 25 45 47 27 26 47 26 46 71 72 37 71 37 2 18 52 53 18 53 54 8 71 2 18 17 52 48 27 47 70 71 8 3 44 66 79 33 32 3 66 4 28 27 48 19 18 54 19 54 55 49 28 48 7 70 8 78 79 32 69 70 7 1 44 3 78 32 31 1 65 44 29 49 50 29 28 49 80 34 33 20 55 56 80 33 79 20 19 55 77 78 31 77 31 30 15 65 1 77 30 42 6 68 69 15 64 65 6 69 7 21 20 56 21 56 57 81 35 34 14 64 15 81 34 80 14 63 64 16 50 51 76 77 42 16 29 50 22 57 58 76 42 41 22 21 57 13 63 14 82 36 35 13 62 63 5 67 68 5 68 6 9 22 58 9 58 59 82 35 81 75 76 41 12 62 13 12 61 62 75 41 40 10 9 59 10 59 60 11 10 60 11 61 12 11 60 61 43 36 82 43 24 23 43 23 36 17 51 52 74 75 40 17 16 51 74 40 39 

TShapes 36
Ve
2.00001e-007
98 -84.29533455905 -53.75771604352
0 0

0101101
*
Ve
2.00001e-007
98 -93.07116017795 -48.96346065748
0 0

0101101
*
Ed
 1e-007 1 1 0
1  1 0 0 3.14159265358979
2  1 1 3 0 3.14159265358979
2  2 2 6 0 3.14159265358979
6  1 1 0
6  2 2 0
0

0101000
+36 0 -35 0 *
Ve
2.00001e-007
90 -84.29533455905 -53.75771604352
0 0

0101101
*
Ed
 1e-007 1 1 0
1  2 0 -19 -11
2  3 1 0 -19 -11
2  4 3 0 -19 -11
4 G1 1 0 3 0
6  3 1 7
6  4 3 7
0

0101000
+36 7 -33 7 *
Ve
2.00001e-007
90 -93.07116017795 -48.96346065748
0 0

0101101
*
Ed
 1e-007 1 1 0
1  3 0 0 3.14159265358979
2  5 1 3 0 3.14159265358979
2  6 4 6 0 3.14159265358979
6  5 1 0
6  6 4 0
0

0101000
+33 0 -31 0 *
Ed
 1e-007 1 1 0
1  4 0 -19 -11
2  7 1 0 -19 -11
2  8 3 0 -19 -11
4 G1 1 0 3 0
6  7 1 7
6  8 3 7
0

0101000
+35 7 -31 7 *
Wi

0101100
+34 0 -32 3 -30 0 +29 3 *
Fa
0  1e-007 1 3
2  1
0101000
+28 0 *
Ed
 1e-007 1 1 0
1  5 0 0 3.14159265358979
2  9 3 3 0 3.14159265358979
2  10 2 6 0 3.14159265358979
6  9 3 0
6  10 2 0
0

0101000
+35 0 -36 0 *
Wi

0101100
+26 0 +34 0 *
Ve
1.00005e-007
4.3 -1.05319624727e-015 0
0 0

0101101
*
Ve
1.00005e-007
-4.3 5.26580732144e-016 0
0 0

0101101
*
Ed
 1.00005e-007 1 1 0
1  6 0 0 3.14159265358979
2  11 5 0 0 3.14159265358979
6  11 5 0
2  12 2 0 0 3.14159265358979
6  12 6 0
6  13 2 8
0

0101000
+24 0 -23 0 *
Ed
 1.00005e-007 1 1 0
1  7 0 3.14159265358979 6.28318530717959
2  13 6 0 3.14159265358979 6.28318530717959
6  14 5 0
2  14 2 0 3.14159265358979 6.28318530717959
6  15 7 0
6  16 2 8
0

0101000
+23 0 -24 0 *
Wi

0101100
+22 6 +21 6 *
Fa
0  1e-007 2 6
2  2
0101000
+25 0 +20 0 *
Ed
 1e-007 1 1 0
1  8 0 0 3.14159265358979
2  15 3 3 0 3.14159265358979
2  16 4 6 0 3.14159265358979
6  17 3 0
6  18 4 0
0

0101000
+31 0 -33 0 *
Wi

0101100
+26 0 -29 3 -18 0 +32 3 *
Fa
0  1e-007 3 3
2  3
0101000
+17 0 *
Wi

0101100
+18 0 +30 0 *
Ve
3.67450707447189e-005
4.3 -1.05319624727e-015 -8
0 0

0101101
*
Ve
3.67450707447189e-005
-4.3 5.26598123634e-016 -8
0 0

0101101
*
Ed
 3.67450707447189e-005 1 1 0
1  9 0 0 19.1460637772
2  17 5 0 0 19.1460637772
6  19 8 0
2  18 4 0 0 19.1460637772
6  20 6 0
6  21 4 8
0

0101000
+14 0 -13 0 *
Ed
 1.00005e-007 1 1 0
1  10 0 3.14159265358979 6.28318530717959
2  19 6 0 3.14159265358979 6.28318530717959
6  22 8 0
2  20 4 0 3.14159265358979 6.28318530717959
6  23 7 0
6  24 4 8
0

0101000
+13 0 -14 0 *
Wi

0101100
+12 6 +11 6 *
Fa
0  1e-007 4 6
2  4
0101000
+15 0 +10 0 *
Ed
 1e-007 1 1 0
1  11 0 0 8
2  21 6 0 0 8
2  22 5 0 0 8
4 G1 6 0 5 0
6  25 6 0
6  26 7 0
0

0101000
+14 0 -24 0 *
Ed
 1e-007 1 1 0
1  12 0 0 8
2  23 6 0 0 8
2  24 5 0 0 8
4 G1 6 0 5 0
6  27 6 0
6  28 7 0
0

0101000
+13 0 -23 0 *
Wi

0101100
-22 0 -8 0 +12 0 +7 0 *
Fa
0  1e-007 5 0
2  6
0101000
+6 0 *
Wi

0101100
+8 0 -21 0 -7 0 +11 0 *
Fa
0  1e-007 6 0
2  7
0101000
+4 0 *
Sh

0101100
+27 0 -19 0 +16 0 +9 0 -5 6 -3 6 *
So

0100000
+2 0 *

+1 0 