DBRep_DrawableShape

CASCADE Topology V1, (c) Matra-Datavision
Locations 2
1
              1               0               0               0 
              0               1               0               0 
              0               0               1               0 
1
              0               0              -1             104 
              0               1               0  -88.6832473685 
              1               0               0  -51.3605883505 
Curve2ds 24
1 3.1415926469671525 499996.96446639212 0 1 
1 -6.6226411021830245e-009 499996.96446639212 0 1 
1 -2.070796326794897 1.0000000000041755 1 0 
1 -2.070796326794897 -24.292893218810999 1 0 
1 -6.6226411021830245e-009 499996.96446639212 0 1 
1 3.1415926469671525 499996.96446639212 0 1 
1 -2.070796326794897 4.4408920985060811e-016 1 0 
1 -5.2123889803846906 1.0000000000041755 1 0 
1 -5.2123889803846906 -24.292893218810999 1 0 
1 -5.2123889803846906 4.4408920985060811e-016 1 0 
1 3.1415926535897931 0 0 1 
1 0 0 0 1 
1 -2.070796326794897 24.292893217900001 1 0 
1 5.2123889803846897 1.0000000006483489 -1 0 
1 0 0 0 1 
1 3.1415926535897931 0 0 1 
7 0 0  1 2 2  0 24.292893218800003  3.1415926535897931 24.292893217900001 
 -7.8539816339700002 2 7.8539816339700002 2
7 0 0  1 2 2  3.1415926535897931 1.0000000000104512  8.8817841970050221e-017 1.0000000006468484 
 -7.8539816339700002 2 7.8539816339700002 2
1 5.6930076634577224e-009 499996.96446639212 0 1 
1 3.1415926592828005 499996.96446639212 0 1 
1 -4.2123889803846897 0 1 0 
1 3.1415926592828005 499996.96446639212 0 1 
1 5.6930076634577224e-009 499996.96446639212 0 1 
1 -1.0707963267948959 0 1 0 
Curves 14
1 169503.55377200001 -310274.17396599997 353551.24414700002 0.33900504942105358 -0.62054458056309802 0.70710678118711168 
2 0 0 0.70710678118900006 0 0 1 1 0 -0 -0 1 0 5
1 -169503.55377200001 310274.17396599997 353551.24414700002 -0.33900504942105358 0.62054458056309802 0.70710678118711168 
2 0 0 6.2803698347399995e-016 0 0 1 1 0 -0 -0 1 0 4.2928932188099997
2 0 0 0.70710678118900006 0 0 1 1 0 -0 -0 1 0 5
2 0 0 6.2803698347399995e-016 0 0 1 1 0 -0 -0 1 0 4.2928932188099997
1 2.3971276930199998 -4.3879128094500004 25 0 0 1 
2 0 0 49.292893217900001 0 0 1 1 0 -0 -0 1 0 5
1 -2.3971276930199998 4.3879128094500004 25 0 0 1 
7 0 0  5 15 5  2.3971276930199998 -4.3879128094500004 49.292893218800003  3.0863794253600001 -4.0113728719499999 49.292893218800003  3.7016977138599998 -3.4994986732700002 49.292893218700002  4.2075322752600002 -2.8715377555599999 49.292893218700002  4.94572276322 -1.45111459002 49.2928932186  5.0920147979900001 0.14297631275100001 49.292893218499998  5.0056584232899999 0.94469078450400001 49.292893218400003  4.5232470706300001 2.47106113686 49.292893218300001  3.4994986732700002 3.7016977138599998 49.2928932182  2.8715377555599999 4.2075322752600002 49.2928932182  1.45111459002 4.94572276322 49.292893218099998  -0.14297631275100001 5.0920147979900001 49.292893218000003  -0.94469078450400001 5.0056584232899999 49.292893218000003  -1.70787596068 4.76445274696 49.292893217900001  -2.3971276930199998 4.3879128094500004 49.292893217900001 
 -7.8539816339700002 6 -3.9269908169900001 3 4.4408920985e-016 3 3.9269908169900001 3 7.8539816339700002 6
1 169503.55377200001 -310274.17396599997 -353501.24414700002 0.33900504942105358 -0.62054458056309802 -0.70710678118711168 
2 0 0 50 -0 0 -1 -1 0 0 0 1 0 4.2928932188099997
1 -169503.55377200001 310274.17396599997 -353501.24414700002 -0.33900504942105358 0.62054458056309802 -0.70710678118711168 
2 0 0 50 -0 0 -1 -1 0 0 0 1 0 4.2928932188099997
Polygon3D 0
PolygonOnTriangulations 28
2 1 2 
p 0.200000000800329 1 -499996.964466392 -499995.964466392 
2 21 3 
p 0.200000000800329 1 -499996.964466392 -499995.964466392 
18 3 4 5 6 7 8 9 10 11 12 13 14 15 16 17 18 19 2 
p 0.200000000800329 1 2.0707963267949 2.25559589465312 2.44039546251134 2.62519503036957 2.80999459822779 2.99479416608601 3.17959373394424 3.36439330180246 3.54919286966068 3.7339924375189 3.91879200537713 4.10359157323535 4.28839114109357 4.4731907089518 4.65799027681002 4.84278984466824 5.02758941252647 5.21238898038469 
18 20 21 22 23 24 25 26 27 28 29 30 31 32 33 34 35 36 1 
p 0.200000000800329 1 2.0707963267949 2.25559589465312 2.44039546251134 2.62519503036957 2.80999459822779 2.99479416608601 3.17959373394424 3.36439330180246 3.54919286966068 3.7339924375189 3.91879200537713 4.10359157323535 4.28839114109357 4.4731907089518 4.65799027681002 4.84278984466824 5.02758941252647 5.21238898038469 
2 20 3 
p 0.200000000800329 1 -499996.964466392 -499995.964466392 
2 1 2 
p 0.200000000800329 1 -499996.964466392 -499995.964466392 
18 20 21 22 23 24 25 26 27 28 29 30 31 32 33 34 35 36 1 
p 0.200000000800329 1 2.07079632679469 2.25559589465292 2.44039546251114 2.62519503036936 2.80999459822758 2.99479416608581 3.17959373394403 3.36439330180225 3.54919286966048 3.7339924375187 3.91879200537692 4.10359157323515 4.28839114109337 4.47319070895159 4.65799027680982 4.84278984466804 5.02758941252626 5.21238898038449 
18 2 20 21 22 23 24 25 26 27 28 29 30 31 32 33 34 35 1 
p 0.200000000800329 1 2.07079632679469 2.25559589465292 2.44039546251114 2.62519503036936 2.80999459822758 2.99479416608581 3.17959373394403 3.36439330180225 3.54919286966048 3.7339924375187 3.91879200537692 4.10359157323515 4.28839114109337 4.47319070895159 4.65799027680982 4.84278984466804 5.02758941252626 5.21238898038449 
19 3 4 5 6 7 8 9 10 11 12 13 14 15 16 17 18 19 20 2 
p 0.200000000800329 1 5.21238898038469 5.38692190558412 5.56145483078356 5.73598775598299 5.91052068118242 6.08505360638185 6.25958653158129 6.43411945678072 6.60865238198015 6.78318530717958 6.95771823237902 7.13225115757845 7.30678408277788 7.48131700797732 7.65584993317675 7.83038285837618 8.00491578357561 8.17944870877505 8.35398163397448 
19 23 24 25 26 27 28 29 30 31 32 33 34 35 36 37 38 39 40 1 
p 0.200000000800329 1 5.21238898038469 5.38692190558412 5.56145483078356 5.73598775598299 5.91052068118242 6.08505360638185 6.25958653158129 6.43411945678072 6.60865238198015 6.78318530717958 6.95771823237902 7.13225115757845 7.30678408277788 7.48131700797732 7.65584993317675 7.83038285837618 8.00491578357561 8.17944870877505 8.35398163397448 
19 21 22 23 24 25 26 27 28 29 30 31 32 33 34 35 36 37 38 1 
p 0.200000000800329 1 5.21238898038449 5.38692190558392 5.56145483078335 5.73598775598278 5.91052068118222 6.08505360638165 6.25958653158108 6.43411945678051 6.60865238197995 6.78318530717938 6.95771823237881 7.13225115757825 7.30678408277768 7.48131700797711 7.65584993317654 7.83038285837598 8.00491578357541 8.17944870877484 8.35398163397428 
19 1 3 4 5 6 7 8 9 10 11 12 13 14 15 16 17 18 19 2 
p 0.200000000800329 1 5.21238898038449 5.38692190558392 5.56145483078335 5.73598775598278 5.91052068118222 6.08505360638165 6.25958653158108 6.43411945678051 6.60865238197995 6.78318530717938 6.95771823237881 7.13225115757825 7.30678408277768 7.48131700797711 7.65584993317654 7.83038285837598 8.00491578357541 8.17944870877484 8.35398163397428 
2 1 2 
p 0.200000000800329 1 -24.292893218812 24.2928932179 
2 23 3 
p 0.200000000800329 1 -24.292893218812 24.2928932179 
18 21 22 23 24 25 26 27 28 29 30 31 32 33 34 35 36 37 2 
p 0.200000000800329 1 2.0707963267949 2.25559589465312 2.44039546251134 2.62519503036957 2.80999459822779 2.99479416608601 3.17959373394424 3.36439330180246 3.54919286966068 3.7339924375189 3.91879200537713 4.10359157323535 4.28839114109357 4.4731907089518 4.65799027681002 4.84278984466824 5.02758941252647 5.21238898038469 
18 3 4 5 6 7 8 9 10 11 12 13 14 15 16 17 18 19 2 
p 0.200000000800329 1 2.0707963267949 2.25559589465312 2.44039546251134 2.62519503036957 2.80999459822779 2.99479416608601 3.17959373394424 3.36439330180246 3.54919286966068 3.7339924375189 3.91879200537713 4.10359157323535 4.28839114109357 4.4731907089518 4.65799027681002 4.84278984466824 5.02758941252647 5.21238898038469 
2 20 3 
p 0.200000000800329 1 -24.292893218811 24.2928932179 
2 1 2 
p 0.200000000800329 1 -24.292893218811 24.2928932179 
21 21 22 23 24 25 26 27 28 29 30 31 32 33 34 35 36 37 38 39 40 2 
p 0.200000000800329 1 -7.85398163397 -7.04398163236322 -6.23398163075644 -5.42398162914966 -4.61398162754288 -3.8039816259361 -2.99398162432932 -2.18398162272255 -1.37398162111577 -0.563981619508987 0.246018382097792 1.05601838370457 1.86601838531135 2.67601838691813 3.48601838852491 4.29601839013169 5.10601839173847 5.91601839334525 6.72601839495203 7.29000001446101 7.85398163397 
21 3 4 5 6 7 8 9 10 11 12 13 14 15 16 17 18 19 20 21 22 2 
p 0.200000000800329 1 -7.85398163397 -7.04398163236322 -6.23398163075644 -5.42398162914966 -4.61398162754288 -3.8039816259361 -2.99398162432932 -2.18398162272255 -1.37398162111577 -0.563981619508987 0.246018382097792 1.05601838370457 1.86601838531135 2.67601838691813 3.48601838852491 4.29601839013169 5.10601839173847 5.91601839334525 6.72601839495203 7.29000001446101 7.85398163397 
2 1 2 
p 0.200000000800329 1 -499996.964466392 -499995.964466391 
2 3 21 
p 0.200000000800329 1 -499996.964466392 -499995.964466391 
19 1 4 5 6 7 8 9 10 11 12 13 14 15 16 17 18 19 20 3 
p 0.200000000800329 1 4.21238898038489 4.38692190558433 4.56145483078376 4.73598775598319 4.91052068118263 5.08505360638206 5.25958653158149 5.43411945678092 5.60865238198036 5.78318530717979 5.95771823237922 6.13225115757865 6.30678408277809 6.48131700797752 6.65584993317695 6.83038285837639 7.00491578357582 7.17944870877525 7.35398163397469 
19 2 20 21 22 23 24 25 26 27 28 29 30 31 32 33 34 35 36 1 
p 0.200000000800329 1 4.21238898038489 4.38692190558433 4.56145483078376 4.73598775598319 4.91052068118263 5.08505360638206 5.25958653158149 5.43411945678092 5.60865238198036 5.78318530717979 5.95771823237922 6.13225115757865 6.30678408277809 6.48131700797752 6.65584993317695 6.83038285837639 7.00491578357582 7.17944870877525 7.35398163397469 
2 3 21 
p 0.200000000800329 1 -499996.964466392 -499995.964466391 
2 1 2 
p 0.200000000800329 1 -499996.964466392 -499995.964466391 
19 1 4 5 6 7 8 9 10 11 12 13 14 15 16 17 18 19 20 3 
p 0.200000000800329 1 1.0707963267951 1.24532925199453 1.41986217719397 1.5943951023934 1.76892802759283 1.94346095279227 2.1179938779917 2.29252680319113 2.46705972839056 2.64159265359 2.81612557878943 2.99065850398886 3.16519142918829 3.33972435438773 3.51425727958716 3.68879020478659 3.86332312998603 4.03785605518546 4.21238898038489 
19 1 3 4 5 6 7 8 9 10 11 12 13 14 15 16 17 18 19 2 
p 0.200000000800329 1 1.0707963267951 1.24532925199453 1.41986217719397 1.5943951023934 1.76892802759283 1.94346095279227 2.1179938779917 2.29252680319113 2.46705972839056 2.64159265359 2.81612557878943 2.99065850398886 3.16519142918829 3.33972435438773 3.51425727958716 3.68879020478659 3.86332312998603 4.03785605518546 4.21238898038489 
Surfaces 8
3 0 0 0 0 0 1 -0.4794255386042035 0.87758256189037243 0 -0.87758256189037243 -0.4794255386042035 0 4.2928932188099997
0.78539816339699997
3 0 0 0 0 0 1 0.4794255386042035 -0.87758256189037243 0 0.87758256189037243 0.4794255386042035 -0 4.2928932188099997
0.78539816339699997
2 0 0 25 0 0 1 -0.4794255386042035 0.87758256189037243 0 -0.87758256189037243 -0.4794255386042035 0 5
2 0 0 25 0 0 1 0.4794255386042035 -0.87758256189037243 0 0.87758256189037243 0.4794255386042035 -0 5
3 0 0 50 -0 -0 -1 0.4794255386042035 -0.87758256189037243 0 -0.87758256189037243 -0.4794255386042035 0 4.2928932188099997
0.78539816339699997
1 0 0 0 0 0 1 1 0 -0 -0 1 0 
3 0 0 50 -0 -0 -1 -0.4794255386042035 0.87758256189037243 0 0.87758256189037243 0.4794255386042035 -0 4.2928932188099997
0.78539816339699997
1 0 4.2928932188099997 50 0 0 1 1 0 -0 -0 1 0 
Triangulations 8
36 34 1 0.0366547018675416
2.0581226436 -3.76736822889001 0 2.39712769302 -4.38791280945 0.707106781188003 -2.39712769302 4.38791280945 0.707106781188998 -3.16258890170492 3.87272919771223 0.707106781188998 -3.82035193844857 3.22566443797123 0.707106781188998 -4.34801747193546 2.4687535445532 0.707106781188998 -4.72761648528776 1.62777221011891 0.707106781188998 -4.94622218938459 0.731359045366602 0.707106781188998 -4.99639022916156 -0.189959674507179 0.707106781188998 -4.87641219219402 -1.10480954549712 0.707106781188998 -4.59037378663308 -1.98203645248816 0.707106781188998 -4.14801570731488 -2.79176748528043 0.707106781188998 -3.56440192808056 -3.50642822471751 0.707106781188998 -2.85940671621438 -4.10168175645894 0.707106781188998 -2.05703783810786 -4.55725743540921 0.707106781188998 -1.18461900356953 -4.85764117822445 0.707106781188998 -0.27185938965853 -4.99260377681371 0.707106781188998 0.650158069707885 -4.95754924175179 0.707106781188998 1.55003517578906 -4.75367131318696 0.707106781188998 -2.0581226436 3.76736822889001 2.55795384873636e-012 -2.71533129000188 3.32504258222983 0 -3.28007258600613 2.76948659838533 0 -3.7331149441074 2.11961907006587 0 -4.05903055016496 1.3975704565182 0 -4.2467207391072 0.627929257274786 0 -4.28979394665927 -0.163095319706969 0 -4.18678336639861 -0.948565881187378 0 -3.94119690008841 -1.70173416926333 0 -3.56139770029038 -2.39695194121019 0 -3.06031937323468 -3.01054438962612 0 -2.45502554037201 -3.52161635960336 0 -1.76612875721056 -3.91276390816758 0 -1.01708857746027 -4.17066697468219 0 -0.233412666067863 -4.2865429795377 0 0.558211833719845 -4.2564459043667 0 1.33082709901153 -4.08140066896665 0 3.14159264696715 -5.82076609134674e-011 3.14159264696715 0.999999999941792 -8.27180612553028e-025 1.00000000000418 0.184799567858223 1.00000000000418 0.369599135716446 1.00000000000418 0.554398703574669 1.00000000000418 0.739198271432892 1.00000000000418 0.923997839291115 1.00000000000418 1.10879740714934 1.00000000000418 1.29359697500756 1.00000000000418 1.47839654286578 1.00000000000418 1.66319611072401 1.00000000000418 1.84799567858223 1.00000000000418 2.03279524644045 1.00000000000418 2.21759481429868 1.00000000000418 2.4023943821569 1.00000000000418 2.58719395001512 1.00000000000418 2.77199351787335 1.00000000000418 2.95679308573157 1.00000000000418 -6.62264110218302e-009 -5.82076609134674e-011 0.184799567858019 4.44089209850063e-016 0.369599135716242 4.44089209850063e-016 0.554398703574465 4.44089209850063e-016 0.739198271432688 4.44089209850063e-016 0.923997839290911 4.44089209850063e-016 1.10879740714913 4.44089209850063e-016 1.29359697500736 4.44089209850063e-016 1.47839654286558 4.44089209850063e-016 1.6631961107238 4.44089209850063e-016 1.84799567858203 4.44089209850063e-016 2.03279524644025 4.44089209850063e-016 2.21759481429847 4.44089209850063e-016 2.4023943821567 4.44089209850063e-016 2.58719395001492 4.44089209850063e-016 2.77199351787314 4.44089209850063e-016 2.95679308573137 4.44089209850063e-016 3 20 21 4 3 21 5 21 22 5 4 21 6 22 23 6 5 22 7 23 24 7 6 23 8 24 25 8 7 24 9 25 26 9 8 25 10 26 27 10 9 26 11 27 28 11 10 27 12 28 29 12 11 28 13 29 30 13 12 29 14 30 31 14 13 30 15 31 32 15 14 31 16 32 33 16 15 32 17 33 34 17 16 33 18 34 35 18 17 34 19 18 35 19 35 36 2 19 36 2 36 1 
38 36 1 0.03416913745452
-2.0581226436 3.76736822889001 2.55795384873636e-012 -2.39712769302 4.38791280945 0.707106781188998 2.39712769302 -4.38791280945 0.707106781188003 3.12266300017006 -3.90499369876174 0.707106781188998 3.75331777220266 -3.30342333055691 0.707106781188998 4.26992988299731 -2.60148011606596 0.707106781188998 4.65680233498588 -1.8204922446608 0.707106781188998 4.90218020448157 -0.98418963761516 0.707106781188998 4.99860780908697 -0.117982926454559 0.707106781188998 4.94315524483086 0.751808636224126 0.707106781188998 4.73750740981781 1.59875687392466 0.707106781188998 4.38791280945187 2.39712769302101 0.707106781188998 3.90499369876175 3.12266300017005 0.707106781188998 3.30342333055691 3.75331777220265 0.707106781188998 2.60148011606596 4.2699298829973 0.707106781188998 1.82049224466081 4.65680233498587 0.707106781188998 0.98418963761516 4.90218020448157 0.707106781188998 0.117982926454566 4.99860780908696 0.707106781188998 -0.751808636224112 4.94315524483086 0.707106781188998 -1.59875687392465 4.73750740981781 0.707106781188998 2.0581226436 -3.76736822889001 0 2.6810517636111 -3.35274419378256 0 3.22251848246499 -2.83624872292195 0 3.66607060790221 -2.23357526982647 0 3.99823103303957 -1.56303576240093 0 4.20890723144053 -0.845004204269088 0 4.29169791342401 -0.101297620983303 0 4.24408752601203 0.645486839257003 0 4.06752268673408 1.37265850851858 0 3.76736822888551 2.05812264359754 0 3.35274419378256 2.68105176361109 0 2.83624872292196 3.22251848246499 0 2.23357526982647 3.66607060790221 0 1.56303576240094 3.99823103303956 0 0.845004204269102 4.20890723144053 0 0.10129762098331 4.29169791342402 0 -0.645486839256989 4.24408752601202 0 -1.37265850851857 4.06752268673408 0 3.14159264696715 -5.82076609134674e-011 3.14159264696715 0.999999999941792 -8.88178419700125e-016 1.00000000000418 0.174532925199432 1.00000000000418 0.349065850398865 1.00000000000418 0.523598775598297 1.00000000000418 0.69813170079773 1.00000000000418 0.872664625997163 1.00000000000418 1.0471975511966 1.00000000000418 1.22173047639603 1.00000000000418 1.39626340159546 1.00000000000418 1.57079632679489 1.00000000000418 1.74532925199433 1.00000000000418 1.91986217719376 1.00000000000418 2.09439510239319 1.00000000000418 2.26892802759262 1.00000000000418 2.44346095279206 1.00000000000418 2.61799387799149 1.00000000000418 2.79252680319092 1.00000000000418 2.96705972839036 1.00000000000418 -6.62264110218302e-009 -5.82076609134674e-011 0.174532925199228 4.44089209850063e-016 0.34906585039866 4.44089209850063e-016 0.523598775598093 4.44089209850063e-016 0.698131700797526 4.44089209850063e-016 0.872664625996959 4.44089209850063e-016 1.04719755119639 4.44089209850063e-016 1.22173047639582 4.44089209850063e-016 1.39626340159526 4.44089209850063e-016 1.57079632679469 4.44089209850063e-016 1.74532925199412 4.44089209850063e-016 1.91986217719356 4.44089209850063e-016 2.09439510239299 4.44089209850063e-016 2.26892802759242 4.44089209850063e-016 2.44346095279185 4.44089209850063e-016 2.61799387799129 4.44089209850063e-016 2.79252680319072 4.44089209850063e-016 2.96705972839015 4.44089209850063e-016 3 21 22 4 3 22 5 22 23 5 4 22 6 23 24 6 5 23 7 24 25 7 6 24 8 25 26 8 7 25 9 26 27 9 8 26 10 27 28 10 9 27 11 28 29 11 10 28 12 29 30 12 11 29 13 30 31 13 12 30 14 31 32 14 13 31 15 32 33 15 14 32 16 33 34 16 15 33 17 34 35 17 16 34 18 17 35 18 35 36 19 18 36 19 36 37 20 19 37 20 37 38 2 20 38 2 38 1 
36 34 1 0.0213291185258855
2.39712769302 -4.38791280945 0.707106781188003 2.39712769302 -4.38791280945 49.2928932179 -2.39712769302 4.38791280945 49.2928932179 -3.16258890170492 3.87272919771223 49.2928932179 -3.82035193844857 3.22566443797123 49.2928932179 -4.34801747193546 2.4687535445532 49.2928932179 -4.72761648528776 1.62777221011891 49.2928932179 -4.94622218938459 0.731359045366602 49.2928932179 -4.99639022916156 -0.189959674507179 49.2928932179 -4.87641219219402 -1.10480954549712 49.2928932179 -4.59037378663308 -1.98203645248816 49.2928932179 -4.14801570731488 -2.79176748528043 49.2928932179 -3.56440192808056 -3.50642822471751 49.2928932179 -2.85940671621438 -4.10168175645894 49.2928932179 -2.05703783810786 -4.55725743540921 49.2928932179 -1.18461900356953 -4.85764117822445 49.2928932179 -0.27185938965853 -4.99260377681371 49.2928932179 0.650158069707885 -4.95754924175179 49.2928932179 1.55003517578906 -4.75367131318696 49.2928932179 -2.39712769302 4.38791280945 0.707106781188998 -3.16258890170492 3.87272919771223 0.707106781188998 -3.82035193844857 3.22566443797123 0.707106781188998 -4.34801747193546 2.4687535445532 0.707106781188998 -4.72761648528776 1.62777221011891 0.707106781188998 -4.94622218938459 0.731359045366602 0.707106781188998 -4.99639022916156 -0.189959674507179 0.707106781188998 -4.87641219219402 -1.10480954549712 0.707106781188998 -4.59037378663308 -1.98203645248816 0.707106781188998 -4.14801570731488 -2.79176748528043 0.707106781188998 -3.56440192808056 -3.50642822471751 0.707106781188998 -2.85940671621438 -4.10168175645894 0.707106781188998 -2.05703783810786 -4.55725743540921 0.707106781188998 -1.18461900356953 -4.85764117822445 0.707106781188998 -0.27185938965853 -4.99260377681371 0.707106781188998 0.650158069707885 -4.95754924175179 0.707106781188998 1.55003517578906 -4.75367131318696 0.707106781188998 3.14159265358979 -24.292893218812 3.14159265358979 24.2928932179 0 24.2928932179 0.184799567858223 24.2928932179 0.369599135716446 24.2928932179 0.554398703574669 24.2928932179 0.739198271432892 24.2928932179 0.923997839291115 24.2928932179 1.10879740714934 24.2928932179 1.29359697500756 24.2928932179 1.47839654286578 24.2928932179 1.66319611072401 24.2928932179 1.84799567858223 24.2928932179 2.03279524644045 24.2928932179 2.21759481429868 24.2928932179 2.4023943821569 24.2928932179 2.58719395001512 24.2928932179 2.77199351787335 24.2928932179 2.95679308573157 24.2928932179 0 -24.292893218811 0.184799567858223 -24.292893218811 0.369599135716446 -24.292893218811 0.554398703574669 -24.292893218811 0.739198271432892 -24.292893218811 0.923997839291115 -24.292893218811 1.10879740714934 -24.292893218811 1.29359697500756 -24.292893218811 1.47839654286578 -24.292893218811 1.66319611072401 -24.292893218811 1.84799567858223 -24.292893218811 2.03279524644045 -24.292893218811 2.21759481429868 -24.292893218811 2.4023943821569 -24.292893218811 2.58719395001512 -24.292893218811 2.77199351787335 -24.292893218811 2.95679308573157 -24.292893218811 4 3 20 4 20 21 5 21 22 5 4 21 6 22 23 6 5 22 7 23 24 7 6 23 8 24 25 8 7 24 9 25 26 9 8 25 10 26 27 10 9 26 11 27 28 11 10 27 12 28 29 12 11 28 13 29 30 13 12 29 14 30 31 14 13 30 15 31 32 15 14 31 16 32 33 16 15 32 17 33 34 17 16 33 18 34 35 18 17 34 19 18 35 19 35 36 2 19 36 2 36 1 
35 33 1 1.2789942714853e-012
2.0581226436 -3.76736822889001 0 -2.0581226436 3.76736822889001 2.55795384873636e-012 2.6810517636111 -3.35274419378256 0 3.22251848246499 -2.83624872292195 0 3.66607060790221 -2.23357526982647 0 3.99823103303957 -1.56303576240093 0 4.20890723144053 -0.845004204269088 0 4.29169791342401 -0.101297620983303 0 4.24408752601203 0.645486839257003 0 4.06752268673408 1.37265850851858 0 3.76736822888551 2.05812264359754 0 3.35274419378256 2.68105176361109 0 2.83624872292196 3.22251848246499 0 2.23357526982647 3.66607060790221 0 1.56303576240094 3.99823103303956 0 0.845004204269102 4.20890723144053 0 0.10129762098331 4.29169791342402 0 -0.645486839256989 4.24408752601202 0 -1.37265850851857 4.06752268673408 0 -2.71533129000188 3.32504258222983 0 -3.28007258600613 2.76948659838533 0 -3.7331149441074 2.11961907006587 0 -4.05903055016496 1.3975704565182 0 -4.2467207391072 0.627929257274786 0 -4.28979394665927 -0.163095319706969 0 -4.18678336639861 -0.948565881187378 0 -3.94119690008841 -1.70173416926333 0 -3.56139770029038 -2.39695194121019 0 -3.06031937323468 -3.01054438962612 0 -2.45502554037201 -3.52161635960336 0 -1.76612875721056 -3.91276390816758 0 -1.01708857746027 -4.17066697468219 0 -0.233412666067863 -4.2865429795377 0 0.558211833719845 -4.2564459043667 0 1.33082709901153 -4.08140066896665 0 2.0581226436 -3.76736822889 -2.0581226436 3.76736822889 2.6810517636111 -3.35274419378256 3.22251848246499 -2.83624872292195 3.66607060790221 -2.23357526982647 3.99823103303957 -1.56303576240093 4.20890723144054 -0.845004204269092 4.29169791342401 -0.1012976209833 4.24408752601203 0.645486839257 4.06752268673408 1.37265850851858 3.76736822888551 2.05812264359754 3.35274419378257 2.6810517636111 2.83624872292196 3.22251848246499 2.23357526982647 3.66607060790221 1.56303576240093 3.99823103303956 0.8450042042691 4.20890723144053 0.101297620983308 4.29169791342401 -0.645486839256992 4.24408752601203 -1.37265850851857 4.06752268673408 -2.71533129000189 3.32504258222982 -3.28007258600613 2.76948659838532 -3.7331149441074 2.11961907006587 -4.05903055016496 1.39757045651819 -4.2467207391072 0.627929257274793 -4.28979394665927 -0.163095319706964 -4.18678336639861 -0.948565881187375 -3.94119690008842 -1.70173416926333 -3.56139770029038 -2.39695194121019 -3.06031937323469 -3.01054438962613 -2.45502554037201 -3.52161635960336 -1.76612875721056 -3.91276390816757 -1.01708857746027 -4.17066697468219 -0.233412666067863 -4.2865429795377 0.558211833719849 -4.25644590436669 1.33082709901153 -4.08140066896665 13 1 3 13 3 4 13 4 5 13 5 6 13 6 7 13 7 8 13 8 9 13 9 10 13 10 11 13 11 12 13 14 15 13 15 16 13 16 17 13 17 18 13 18 19 13 19 2 13 2 20 13 20 21 13 21 22 13 22 23 13 23 24 13 24 25 13 25 26 13 26 27 13 27 28 13 28 29 13 29 30 13 30 31 13 31 32 13 32 33 13 33 34 13 34 35 13 35 1 
40 38 1 0.0165898859256519
-2.39712769302 4.38791280945 0.707106781188998 -2.39712769302 4.38791280945 49.2928932179 2.39712769302 -4.38791280945 49.2928932179 3.07347267455933 -3.94381746398672 49.292893218772 3.66932651705214 -3.39644125848508 49.2928932187261 4.16910598773597 -2.76013473871983 49.2928932186843 4.55972181222339 -2.05155783945702 49.2928932186419 4.83092471508913 -1.28925015735859 49.2928932185922 4.97560848146694 -0.493179160791712 49.2928932185361 4.98999237190989 0.315805567938241 49.2928932184693 4.87372435084374 1.11652214113462 49.2928932183992 4.62983988836236 1.88800249248571 49.2928932183371 4.26470218194602 2.61004064516663 49.2928932182844 3.78787569876626 3.26372124533562 49.292893218239 3.21185711378795 3.83193465439847 49.2928932182039 2.55174383073427 4.29981852137591 49.2928932181702 1.82481213169349 4.65510958247586 49.2928932181275 1.05008653413196 4.88848736025115 49.2928932180768 0.247862883520938 4.99383774882297 49.2928932180317 -0.560851190474061 4.96841961684166 49.2928932179909 -1.3548807360196 4.81291605186233 49.2928932179459 -1.88800249248315 4.62983988836059 49.2928932179154 2.39712769302 -4.38791280945 0.707106781188003 3.12266300017006 -3.90499369876174 0.707106781188998 3.75331777220266 -3.30342333055691 0.707106781188998 4.26992988299731 -2.60148011606596 0.707106781188998 4.65680233498588 -1.8204922446608 0.707106781188998 4.90218020448157 -0.98418963761516 0.707106781188998 4.99860780908697 -0.117982926454559 0.707106781188998 4.94315524483086 0.751808636224126 0.707106781188998 4.73750740981781 1.59875687392466 0.707106781188998 4.38791280945187 2.39712769302101 0.707106781188998 3.90499369876175 3.12266300017005 0.707106781188998 3.30342333055691 3.75331777220265 0.707106781188998 2.60148011606596 4.2699298829973 0.707106781188998 1.82049224466081 4.65680233498587 0.707106781188998 0.98418963761516 4.90218020448157 0.707106781188998 0.117982926454566 4.99860780908696 0.707106781188998 -0.751808636224112 4.94315524483086 0.707106781188998 -1.59875687392465 4.73750740981781 0.707106781188998 3.14159265358979 -24.292893218811 3.14159265358979 24.2928932179 0 24.2928932188 0.162000000321448 24.2928932187536 0.324000000642897 24.2928932187072 0.486000000964345 24.2928932186608 0.648000001285793 24.2928932186144 0.810000001607242 24.292893218568 0.97200000192869 24.2928932185215 1.13400000225014 24.2928932184751 1.29600000257159 24.2928932184287 1.45800000289303 24.2928932183823 1.62000000321448 24.2928932183359 1.78200000353593 24.2928932182895 1.94400000385738 24.2928932182431 2.10600000417883 24.2928932181967 2.26800000450028 24.2928932181503 2.43000000482172 24.2928932181039 2.59200000514317 24.2928932180574 2.75400000546462 24.292893218011 2.91600000578607 24.2928932179646 3.02879632968793 24.2928932179323 0 -24.292893218812 0.174532925199432 -24.292893218811 0.349065850398865 -24.292893218811 0.523598775598297 -24.292893218811 0.69813170079773 -24.292893218811 0.872664625997163 -24.292893218811 1.0471975511966 -24.292893218811 1.22173047639603 -24.292893218811 1.39626340159546 -24.292893218811 1.57079632679489 -24.292893218811 1.74532925199433 -24.292893218811 1.91986217719376 -24.292893218811 2.09439510239319 -24.292893218811 2.26892802759262 -24.292893218811 2.44346095279206 -24.292893218811 2.61799387799149 -24.292893218811 2.79252680319092 -24.292893218811 2.96705972839036 -24.292893218811 4 3 23 4 23 24 5 24 25 5 4 24 6 25 26 6 5 25 7 26 27 7 6 26 8 27 28 8 7 27 9 28 29 9 8 28 10 29 30 10 9 29 11 30 31 11 10 30 12 31 32 12 11 31 13 32 33 13 12 32 14 33 34 14 13 33 15 34 35 15 14 34 16 35 36 16 15 35 17 16 36 18 36 37 18 17 36 19 18 37 19 37 38 20 19 38 20 38 39 21 20 39 21 39 40 22 21 40 22 40 1 2 22 1 
37 35 1 0.0341691360289465
2.0581226436 -3.76736822889001 50 2.39712769302 -4.38791280945 49.2928932179 -2.0581226436 3.76736822889001 50 1.37265850851858 -4.06752268673408 50 0.645486839257011 -4.24408752601202 50 -0.101297620983289 -4.29169791342402 50 -0.845004204269081 -4.20890723144053 50 -1.56303576240092 -3.99823103303957 50 -2.23357526982646 -3.66607060790221 50 -2.83624872292194 -3.22251848246499 50 -3.35274419378256 -2.68105176361111 50 -3.7673682288855 -2.05812264359756 50 -4.06752268673407 -1.3726585085186 50 -4.24408752601202 -0.645486839257018 50 -4.29169791342401 0.101297620983289 50 -4.20890723144054 0.845004204269074 50 -3.99823103303957 1.56303576240092 50 -3.66607060790222 2.23357526982646 50 -3.222518482465 2.83624872292194 50 -2.68105176361112 3.35274419378256 50 -2.39712769302 4.38791280945 49.2928932179 -3.16258890170492 3.87272919771223 49.2928932179 -3.82035193844857 3.22566443797123 49.2928932179 -4.34801747193546 2.4687535445532 49.2928932179 -4.72761648528776 1.62777221011891 49.2928932179 -4.94622218938459 0.731359045366602 49.2928932179 -4.99639022916156 -0.189959674507179 49.2928932179 -4.87641219219402 -1.10480954549712 49.2928932179 -4.59037378663308 -1.98203645248816 49.2928932179 -4.14801570731488 -2.79176748528043 49.2928932179 -3.56440192808056 -3.50642822471751 49.2928932179 -2.85940671621438 -4.10168175645894 49.2928932179 -2.05703783810786 -4.55725743540921 49.2928932179 -1.18461900356953 -4.85764117822445 49.2928932179 -0.27185938965853 -4.99260377681371 49.2928932179 0.650158069707885 -4.95754924175179 49.2928932179 1.55003517578906 -4.75367131318696 49.2928932179 5.69300766345772e-009 -5.82076609134674e-011 5.69300766345772e-009 1.00000000064028 3.14159265359 0 0.174532925199637 0 0.34906585039907 0 0.523598775598503 0 0.698131700797935 0 0.872664625997368 0 1.0471975511968 0 1.22173047639623 0 1.39626340159567 0 1.5707963267951 0 1.74532925199453 0 1.91986217719396 0 2.0943951023934 0 2.26892802759283 0 2.44346095279226 0 2.6179938779917 0 2.79252680319113 0 2.96705972839056 0 3.1415926592828 1.00000000064028 2.95679308573157 1.00000000064835 2.77199351787335 1.00000000064835 2.58719395001512 1.00000000064835 2.4023943821569 1.00000000064835 2.21759481429868 1.00000000064835 2.03279524644045 1.00000000064835 1.84799567858223 1.00000000064835 1.66319611072401 1.00000000064835 1.47839654286579 1.00000000064835 1.29359697500756 1.00000000064835 1.10879740714934 1.00000000064835 0.923997839291116 1.00000000064835 0.739198271432892 1.00000000064835 0.554398703574669 1.00000000064835 0.369599135716445 1.00000000064835 0.184799567858222 1.00000000064835 2 1 4 37 4 5 37 2 4 36 5 6 36 37 5 35 6 7 35 36 6 34 7 8 34 35 7 33 8 9 33 34 8 32 9 10 32 33 9 31 10 11 31 32 10 30 11 12 30 31 11 29 12 13 29 30 12 28 13 14 28 29 13 27 14 15 27 28 14 26 15 16 26 27 15 25 16 17 25 26 16 24 17 18 24 25 17 23 24 18 23 18 19 22 23 19 22 19 20 21 22 20 21 20 3 
40 38 1 0.031459761736533
-2.0581226436 3.76736822889001 50 -2.39712769302 4.38791280945 49.2928932179 2.0581226436 -3.76736822889001 50 -1.37265850851858 4.06752268673408 50 -0.645486839257011 4.24408752601202 50 0.101297620983296 4.29169791342402 50 0.845004204269088 4.20890723144053 50 1.56303576240092 3.99823103303957 50 2.23357526982647 3.66607060790221 50 2.83624872292195 3.22251848246499 50 3.35274419378256 2.68105176361111 50 3.76736822888551 2.05812264359754 50 4.06752268673407 1.37265850851858 50 4.24408752601202 0.645486839257018 50 4.29169791342401 -0.101297620983289 50 4.20890723144054 -0.845004204269074 50 3.99823103303957 -1.56303576240092 50 3.66607060790222 -2.23357526982646 50 3.222518482465 -2.83624872292195 50 2.68105176361112 -3.35274419378256 50 2.39712769302 -4.38791280945 49.2928932179 3.07347267455933 -3.94381746398672 49.292893218772 3.66932651705214 -3.39644125848508 49.2928932187261 4.16910598773597 -2.76013473871983 49.2928932186843 4.55972181222339 -2.05155783945702 49.2928932186419 4.83092471508913 -1.28925015735859 49.2928932185922 4.97560848146694 -0.493179160791712 49.2928932185361 4.98999237190989 0.315805567938241 49.2928932184693 4.87372435084374 1.11652214113462 49.2928932183992 4.62983988836236 1.88800249248571 49.2928932183371 4.26470218194602 2.61004064516663 49.2928932182844 3.78787569876626 3.26372124533562 49.292893218239 3.21185711378795 3.83193465439847 49.2928932182039 2.55174383073427 4.29981852137591 49.2928932181702 1.82481213169349 4.65510958247586 49.2928932181275 1.05008653413196 4.88848736025115 49.2928932180768 0.247862883520938 4.99383774882297 49.2928932180317 -0.560851190474061 4.96841961684166 49.2928932179909 -1.3548807360196 4.81291605186233 49.2928932179459 -1.88800249248315 4.62983988836059 49.2928932179154 5.69300766345772e-009 -5.82076609134674e-011 5.69300766345772e-009 1.00000000064028 3.14159265359 0 0.174532925199638 0 0.349065850399071 0 0.523598775598504 0 0.698131700797937 0 0.872664625997369 0 1.0471975511968 0 1.22173047639624 0 1.39626340159567 0 1.5707963267951 0 1.74532925199453 0 1.91986217719397 0 2.0943951023934 0 2.26892802759283 0 2.44346095279226 0 2.6179938779917 0 2.79252680319113 0 2.96705972839056 0 3.1415926592828 1.00000000064028 2.97959265326835 1.00000000004327 2.8175926529469 1.00000000007608 2.65559265262545 1.0000000001089 2.493592652304 1.00000000014172 2.33159265198255 1.00000000017453 2.1695926516611 1.00000000020735 2.00759265133965 1.00000000024017 1.84559265101821 1.00000000027298 1.68359265069676 1.0000000003058 1.52159265037531 1.00000000033862 1.35959265005386 1.00000000037143 1.19759264973241 1.00000000040425 1.03559264941097 1.00000000043707 0.873592649089517 1.00000000046988 0.711592648768069 1.0000000005027 0.54959264844662 1.00000000053552 0.387592648125172 1.00000000056833 0.225592647803724 1.00000000060115 0.112796323901862 1.000000000624 40 2 1 40 1 4 39 4 5 39 40 4 38 5 6 38 39 5 37 6 7 37 38 6 36 7 8 36 37 7 35 36 8 34 8 9 34 35 8 33 9 10 33 34 9 32 10 11 32 33 10 31 11 12 31 32 11 30 12 13 30 31 12 29 13 14 29 30 13 28 14 15 28 29 14 27 15 16 27 28 15 26 16 17 26 27 16 25 26 17 25 17 18 24 25 18 24 18 19 23 24 19 23 19 20 22 23 20 22 20 3 21 22 3 
36 34 1 7.27196081129478e-015
-2.0581226436 3.76736822889001 50 2.0581226436 -3.76736822889001 50 -1.37265850851858 4.06752268673408 50 -0.645486839257011 4.24408752601202 50 0.101297620983296 4.29169791342402 50 0.845004204269088 4.20890723144053 50 1.56303576240092 3.99823103303957 50 2.23357526982647 3.66607060790221 50 2.83624872292195 3.22251848246499 50 3.35274419378256 2.68105176361111 50 3.76736822888551 2.05812264359754 50 4.06752268673407 1.37265850851858 50 4.24408752601202 0.645486839257018 50 4.29169791342401 -0.101297620983289 50 4.20890723144054 -0.845004204269074 50 3.99823103303957 -1.56303576240092 50 3.66607060790222 -2.23357526982646 50 3.222518482465 -2.83624872292195 50 2.68105176361112 -3.35274419378256 50 1.37265850851858 -4.06752268673408 50 0.645486839257011 -4.24408752601202 50 -0.101297620983289 -4.29169791342402 50 -0.845004204269081 -4.20890723144053 50 -1.56303576240092 -3.99823103303957 50 -2.23357526982646 -3.66607060790221 50 -2.83624872292194 -3.22251848246499 50 -3.35274419378256 -2.68105176361111 50 -3.7673682288855 -2.05812264359756 50 -4.06752268673407 -1.3726585085186 50 -4.24408752601202 -0.645486839257018 50 -4.29169791342401 0.101297620983289 50 -4.20890723144054 0.845004204269074 50 -3.99823103303957 1.56303576240092 50 -3.66607060790222 2.23357526982646 50 -3.222518482465 2.83624872292194 50 -2.68105176361112 3.35274419378256 50 -2.0581226436 -0.525524989919999 2.0581226436 -8.0602614477 -1.37265850851859 -0.225370532075921 -0.645486839257008 -0.0488056927979734 0.101297620983293 -0.00119530538598944 0.845004204269086 -0.0839859873694628 1.56303576240092 -0.294662185770433 2.23357526982646 -0.626822610907784 2.83624872292195 -1.07037473634501 3.35274419378256 -1.61184145519889 3.76736822888551 -2.23477057521245 4.06752268673408 -2.92023471029141 4.24408752601203 -3.64740637955299 4.29169791342401 -4.39419083979329 4.20890723144054 -5.13789742307908 3.99823103303957 -5.85592898121091 3.66607060790222 -6.52646848863646 3.222518482465 -7.12914194173194 2.68105176361111 -7.64563741259255 1.37265850851859 -8.36041590554408 0.64548683925701 -8.53698074482202 -0.10129762098329 -8.58459113223401 -0.845004204269082 -8.50180045025054 -1.56303576240092 -8.29112425184957 -2.23357526982646 -7.95896382671222 -2.83624872292195 -7.515411701275 -3.35274419378256 -6.97394498242111 -3.7673682288855 -6.35101586240755 -4.06752268673408 -5.66555172732859 -4.24408752601202 -4.93838005806702 -4.29169791342401 -4.19159559782672 -4.20890723144054 -3.44788901454092 -3.99823103303957 -2.72985745640909 -3.66607060790222 -2.05931794898355 -3.222518482465 -1.45664449588806 -2.68105176361112 -0.940149025027449 9 3 1 9 4 3 9 5 4 9 6 5 9 7 6 9 8 7 9 11 10 9 12 11 9 13 12 9 14 13 9 15 14 9 16 15 9 17 16 9 18 17 9 19 18 9 2 19 9 20 2 9 21 20 9 22 21 9 23 22 9 24 23 9 25 24 9 26 25 9 27 26 9 28 27 9 29 28 9 30 29 9 31 30 9 32 31 9 33 32 9 34 33 9 35 34 9 36 35 9 1 36 

TShapes 41
Ve
2.24067937567676e-007
2.0581226436 -3.76736822889 6.28036983474e-016
0 0

0101101
*
Ve
2.24067231517192e-007
2.39712769302 -4.38791280945 0.707106781188
0 0

0101101
*
Ed
 2.22357850822881e-007 1 1 0
1  1 0 -499996.964466392 -499995.964466392
2  1 1 0 -499996.964466392 -499995.964466392
2  2 2 0 -499996.964466392 -499995.964466392
4 G1 1 0 2 0
6  1 1 0
6  2 2 0
0

0101000
+41 0 -40 0 *
Ve
2.24067933223157e-007
-2.39712769302 4.38791280945 0.707106781189
0 0

0101101
*
Ed
 1e-007 1 1 0
1  2 0 2.0707963267949 5.21238898038469
2  3 1 0 2.0707963267949 5.21238898038469
2  4 3 0 2.0707963267949 5.21238898038469
6  3 1 0
6  4 3 0
0

0101000
+38 0 -40 0 *
Ve
2.24069732854828e-007
-2.0581226436 3.76736822889 2.55925070766e-012
0 0

0101101
*
Ed
 2.22355627266608e-007 1 1 0
1  3 0 -499996.964466392 -499995.964466392
2  5 1 0 -499996.964466392 -499995.964466392
2  6 2 0 -499996.964466392 -499995.964466392
4 G1 1 0 2 0
6  5 1 0
6  6 2 0
0

0101000
+36 0 -38 0 *
Ed
 1.00005e-007 1 1 0
1  4 0 2.07079632679469 5.21238898038449
2  7 1 0 2.07079632679469 5.21238898038449
6  7 1 0
6  8 4 0
0

0101000
+36 0 -41 0 *
Wi

0101100
+39 0 -37 0 -35 0 +34 0 *
Fa
0  1e-007 1 0
2  1
0101000
+33 0 *
Ed
 1e-007 1 1 0
1  5 0 5.21238898038469 8.35398163397448
2  8 2 0 5.21238898038469 8.35398163397448
2  9 4 0 5.21238898038469 8.35398163397448
6  9 2 0
6  10 5 0
0

0101000
+40 0 -38 0 *
Ed
 1.00005e-007 1 1 0
1  6 0 5.21238898038449 8.35398163397428
2  10 2 0 5.21238898038449 8.35398163397428
6  11 2 0
6  12 4 0
0

0101000
+41 0 -36 0 *
Wi

0101100
+35 0 -31 0 -39 0 +30 0 *
Fa
0  1e-007 2 0
2  2
0101000
+29 0 *
Ve
2.46377508106269e-005
2.39712769302 -4.38791280945 49.2928932179
0 0

0101101
*
Ed
 1e-007 1 1 0
1  7 0 -24.292893218812 24.2928932179
2  11 3 0 -24.292893218812 24.2928932179
2  12 4 0 -24.292893218812 24.2928932179
4 G1 3 0 4 0
6  13 3 0
6  14 5 0
0

0101000
+40 0 -27 0 *
Ve
2.46377508106269e-005
-2.39712769302 4.38791280945 49.2928932179
0 0

0101101
*
Ed
 1e-007 1 1 0
1  8 0 2.0707963267949 5.21238898038469
2  13 3 0 2.0707963267949 5.21238898038469
2  14 5 0 2.0707963267949 5.21238898038469
6  15 6 0
6  16 3 0
0

0101000
+25 0 -27 0 *
Ed
 1e-007 1 1 0
1  9 0 -24.292893218811 24.2928932179
2  15 3 0 -24.292893218811 24.2928932179
2  16 4 0 -24.292893218811 24.2928932179
4 G1 3 0 4 0
6  17 3 0
6  18 5 0
0

0101000
+38 0 -25 0 *
Wi

0101100
+26 0 -24 0 -23 0 +37 0 *
Fa
0  1e-007 3 0
2  3
0101000
+22 0 *
Wi

0101100
-30 0 -34 0 *
Fa
0  1e-007 6 0
2  4
0101000
-20 0 *
Ed
 2.46377508106269e-005 1 1 0
1  10 0 -7.85398163397 7.85398163397
2  17 4 0 -7.85398163397 7.85398163397
2  18 7 0 -7.85398163397 7.85398163397
6  19 7 0
6  20 5 0
0

0101000
+27 0 -25 0 *
Wi

0101100
+23 0 -18 0 -26 0 +31 0 *
Fa
0  1e-007 4 0
2  5
0101000
+17 0 *
Ve
2.24067937127008e-007
2.0581226436 -3.76736822889 50
0 0

0101101
*
Ed
 2.22324401018676e-007 1 1 0
1  11 0 -499996.964466392 -499995.964466391
2  19 5 0 -499996.964466392 -499995.964466391
2  20 7 0 -499996.964466392 -499995.964466391
4 G1 5 0 7 0
6  21 6 0
6  22 7 0
0

0101000
+15 0 -27 0 *
Ve
2.24067937127008e-007
-2.0581226436 3.76736822889 50
0 0

0101101
*
Ed
 1.00005e-007 1 1 0
1  12 0 4.21238898038489 7.35398163397469
2  21 5 0 4.21238898038489 7.35398163397469
6  23 6 0
6  24 8 0
0

0101000
+15 0 -13 0 *
Ed
 2.22326624262686e-007 1 1 0
1  13 0 -499996.964466392 -499995.964466391
2  22 5 0 -499996.964466392 -499995.964466391
2  23 7 0 -499996.964466392 -499995.964466391
4 G1 5 0 7 0
6  25 6 0
6  26 7 0
0

0101000
+13 0 -25 0 *
Wi

0101100
-14 0 +12 0 +11 0 +24 0 *
Fa
0  1e-007 5 0
2  6
0101000
+10 0 *
Ed
 1.00005e-007 1 1 0
1  14 0 1.0707963267951 4.21238898038489
2  24 7 0 1.0707963267951 4.21238898038489
6  27 7 0
6  28 8 0
0

0101000
+13 0 -15 0 *
Wi

0101100
-11 0 +8 0 +14 0 +18 0 *
Fa
0  1e-007 7 0
2  7
0101000
+7 0 *
Wi

0101100
-8 0 -12 0 *
Fa
0  1e-007 8 0
2  8
0101000
+5 0 *
Sh

0101100
+32 0 +28 0 +21 0 -19 0 +16 0 +9 0 +6 0 +4 0 *
So

0100000
+3 0 *
Co

0100000
+2 2 *

+1 1 